<?xml version="1.0" encoding="UTF-8" standalone="no"?>
<!DOCTYPE svg PUBLIC "-//W3C//DTD SVG 1.1//EN" "http://www.w3.org/Graphics/SVG/1.1/DTD/svg11.dtd">
<svg width="100%" height="100%" viewBox="0 0 22 22" version="1.1" xmlns="http://www.w3.org/2000/svg" xmlns:xlink="http://www.w3.org/1999/xlink" xml:space="preserve" xmlns:serif="http://www.serif.com/" style="fill-rule:evenodd;clip-rule:evenodd;stroke-linejoin:round;stroke-miterlimit:2;">
    <g transform="matrix(1.33333,0,0,1.33333,-422.5,-313.167)">
        <clipPath id="_clip1">
            <path d="M323.781,234.875C327.595,234.875 330.688,237.967 330.688,241.781C330.688,243.395 330.134,244.88 329.206,246.056L332.887,249.738C333.204,250.055 333.204,250.57 332.887,250.887C332.57,251.204 332.055,251.204 331.738,250.887L328.056,247.206C326.88,248.134 325.395,248.688 323.781,248.688C319.967,248.688 316.875,245.595 316.875,241.781C316.875,237.967 319.967,234.875 323.781,234.875ZM323.781,236.5C320.865,236.5 318.5,238.864 318.5,241.781C318.5,244.698 320.865,247.062 323.781,247.062C325.224,247.062 326.532,246.484 327.485,245.546L327.513,245.513C327.523,245.503 327.534,245.493 327.545,245.483C328.484,244.532 329.063,243.224 329.063,241.781C329.063,238.864 326.698,236.5 323.781,236.5Z" clip-rule="nonzero"/>
        </clipPath>
        <g clip-path="url(#_clip1)">
            <g>
                <g>
                    <g>
                        <clipPath id="_clip2">
                            <rect x="316" y="234" width="18" height="18" clip-rule="nonzero"/>
                        </clipPath>
                        <g clip-path="url(#_clip2)">
                            <g transform="matrix(1,0,0,1,0,-919)">
                                <rect x="311.875" y="1148.88" width="26.25" height="26.25"/>
                            </g>
                            <g transform="matrix(1,0,0,1,0,-919)">
                                <rect x="304" y="1141" width="42" height="42" style="fill:rgb(185,185,185);"/>
                            </g>
                        </g>
                    </g>
                </g>
            </g>
        </g>
    </g>
</svg>
