<svg width="96" height="96" viewBox="0 0 96 96" fill="none" xmlns="http://www.w3.org/2000/svg">
<path fill-rule="evenodd" clip-rule="evenodd" d="M39.9997 16.4036C38.6906 16.4036 37.4243 16.9322 36.4825 17.8906C35.5389 18.8508 34.9997 20.1639 34.9997 21.5439V26.6843H60.9997V21.5439C60.9997 20.1639 60.4604 18.8508 59.5168 17.8906C58.575 16.9322 57.3087 16.4036 55.9997 16.4036H39.9997ZM66.9997 26.6843V21.5439C66.9997 18.606 65.8532 15.7781 63.7962 13.685C61.7375 11.5902 58.934 10.4036 55.9997 10.4036H39.9997C37.0653 10.4036 34.2618 11.5902 32.2031 13.685C30.1461 15.7781 28.9997 18.606 28.9997 21.5439V26.6843H19.9997C17.0653 26.6843 14.2618 27.8709 12.2031 29.9657C10.1461 32.0588 8.99966 34.8867 8.99966 37.8246V54.0414C8.99881 54.0824 8.99881 54.1234 8.99966 54.1644V74.4562C8.99966 77.3941 10.1461 80.222 12.2031 82.3151C14.2618 84.4099 17.0653 85.5965 19.9997 85.5965H75.9997C78.934 85.5965 81.7375 84.4099 83.7962 82.3151C85.8532 80.222 86.9997 77.3941 86.9997 74.4562V54.1644C87.0005 54.1235 87.0005 54.0824 86.9997 54.0413V37.8246C86.9997 34.8867 85.8532 32.0588 83.7962 29.9657C81.7375 27.8709 78.934 26.6843 75.9997 26.6843H66.9997ZM19.9997 32.6843C18.6906 32.6843 17.4243 33.2129 16.4825 34.1713C15.5389 35.1315 14.9997 36.4446 14.9997 37.8246V52.2478C25.3075 57.2264 36.579 59.8132 47.9997 59.8132C59.4203 59.8132 70.6918 57.2264 80.9997 52.2478V37.8246C80.9997 36.4446 80.4604 35.1315 79.5168 34.1713C78.575 33.2129 77.3087 32.6843 75.9997 32.6843H19.9997ZM80.9997 58.8553C70.6003 63.4376 59.3701 65.8132 47.9997 65.8132C36.6292 65.8132 25.399 63.4376 14.9997 58.8553V74.4562C14.9997 75.8362 15.5389 77.1493 16.4825 78.1095C17.4243 79.0679 18.6906 79.5965 19.9997 79.5965H75.9997C77.3087 79.5965 78.575 79.0679 79.5168 78.1095C80.4604 77.1493 80.9997 75.8362 80.9997 74.4562V58.8553ZM47.9997 47.0351C49.6565 47.0351 50.9997 48.3783 50.9997 50.0351V50.0758C50.9997 51.7327 49.6565 53.0758 47.9997 53.0758C46.3428 53.0758 44.9997 51.7327 44.9997 50.0758V50.0351C44.9997 48.3783 46.3428 47.0351 47.9997 47.0351Z" fill="white"/>
</svg>
