<svg width="20" height="20" viewBox="0 0 20 20" fill="none" xmlns="http://www.w3.org/2000/svg">
<path fill-rule="evenodd" clip-rule="evenodd" d="M5.42197 17.5636L17.1923 17.5634C17.5889 17.5634 17.9104 17.8848 17.9104 18.2814C17.9104 18.678 17.5889 18.9995 17.1923 18.9995L5.42199 18.9997C5.02542 18.9997 4.70394 18.6782 4.70393 18.2817C4.70392 17.8851 5.02539 17.5636 5.42197 17.5636Z" fill="#707478" stroke="#707478" stroke-width="0.2"/>
<path fill-rule="evenodd" clip-rule="evenodd" d="M15.7156 8.07401L11.9622 4.14572L13.0005 3.1536L16.7539 7.08192L15.7156 8.07401Z" fill="#707478" stroke="#707478" stroke-width="0.2"/>
<path fill-rule="evenodd" clip-rule="evenodd" d="M12.8617 2.03608C14.3 0.636642 16.5972 0.657475 18.0098 2.08278C19.4274 3.51312 19.4219 5.82035 17.9976 7.24396L6.72602 18.5096C6.41183 18.8236 5.98581 19 5.54159 19H2.67555C1.69823 19 0.928359 18.167 1.00531 17.1926L1.2653 13.9004C1.29731 13.495 1.47568 13.1151 1.76713 12.8315L12.8617 2.03608ZM16.9898 3.0937C16.1319 2.22809 14.7366 2.21543 13.8632 3.06535L2.76863 13.8607C2.72701 13.9013 2.70152 13.9555 2.69694 14.0135L2.43695 17.3057C2.42596 17.4449 2.53595 17.5639 2.67555 17.5639H5.5416C5.60505 17.5639 5.66591 17.5387 5.7108 17.4938L16.9823 6.22821C17.8473 5.36362 17.8507 3.96239 16.9898 3.0937Z" fill="#707478" stroke="#707478" stroke-width="0.2"/>
</svg>
