<?xml version="1.0" encoding="UTF-8"?>
<svg width="86px" height="112px" viewBox="0 0 86 112" version="1.1" xmlns="http://www.w3.org/2000/svg" xmlns:xlink="http://www.w3.org/1999/xlink">
    <!-- Generator: Sketch 63.1 (92452) - https://sketch.com -->
    <title>icon-jpg</title>
    <desc>Created with Sketch.</desc>
    <g id="icon-jpg" stroke="none" stroke-width="1" fill="none" fill-rule="evenodd">
        <g id="jpg" fill-rule="nonzero">
            <path d="M60.97,0 L2.926,0 C1.31,0 0,1.31 0,3.852 L0,110 C0,110.69 1.31,112 2.926,112 L83.074,112 C84.69,112 86,110.69 86,110 L86,25.956 C86,24.564 85.814,24.116 85.486,23.786 L62.214,0.514 C61.884,0.186 61.436,0 60.97,0 Z" id="Path" fill="#A2DEBF"></path>
            <polygon id="Path" fill="#88CDA9" points="62 0.302 62 24 85.698 24"></polygon>
            <circle id="Oval" fill="#F3D55B" cx="24.862" cy="28.862" r="9.138"></circle>
            <polygon id="Path" fill="#26B99A" points="0 78 22 78 86 78 86 56 66 37 45 60 34.034 49.034"></polygon>
            <path d="M83.074,112 L2.926,112 C1.31,112 0,110.69 0,109.074 L0,78 L86,78 L86,109.074 C86,110.69 84.69,112 83.074,112 Z" id="Path" fill="#14A085"></path>
            <path d="M22.5011768,105.364 C23.2291768,105.364 23.9525101,105.266 24.6711768,105.07 C25.3898434,104.874 26.0338434,104.547333 26.6031768,104.09 C27.1725101,103.632667 27.6345101,103.016667 27.9891768,102.242 C28.3438434,101.467333 28.5211768,100.492 28.5211768,99.316 L28.5211768,99.316 L28.5211768,86.324 L23.9851768,86.324 L23.9851768,99.12 C23.9851768,100.034667 23.7518434,100.697333 23.2851768,101.108 C22.8185101,101.518667 22.1931768,101.724 21.4091768,101.724 C20.8678434,101.724 20.3358434,101.574667 19.8131768,101.276 C19.2905101,100.977333 18.7118434,100.613333 18.0771768,100.184 L18.0771768,100.184 L18.0771768,104.328 C18.7118434,104.626667 19.4025101,104.874 20.1491768,105.07 C20.8958434,105.266 21.6798434,105.364 22.5011768,105.364 Z M37.0387891,105 L37.0387891,98.868 L40.9027891,98.868 C43.0867891,98.868 44.8041224,98.308 46.0547891,97.188 C47.3054557,96.068 47.9307891,94.472 47.9307891,92.4 C47.9307891,90.328 47.3054557,88.7973333 46.0547891,87.808 C44.8041224,86.8186667 43.0867891,86.324 40.9027891,86.324 L40.9027891,86.324 L32.5027891,86.324 L32.5027891,105 L37.0387891,105 Z M40.3427891,95.368 L37.0387891,95.368 L37.0387891,89.852 L40.3427891,89.852 C40.8281224,89.852 41.2434557,89.9173333 41.5887891,90.048 C41.9341224,90.1786667 42.2094557,90.3746667 42.4147891,90.636 C42.6201224,90.8973333 42.7741224,91.196 42.8767891,91.532 C42.9794557,91.868 43.0307891,92.26 43.0307891,92.708 C43.0307891,93.0813333 42.9794557,93.4313333 42.8767891,93.758 C42.7741224,94.0846667 42.6201224,94.3693333 42.4147891,94.612 C42.2094557,94.8546667 41.9341224,95.0413333 41.5887891,95.172 C41.2434557,95.3026667 40.8281224,95.368 40.3427891,95.368 L40.3427891,95.368 Z M59.413614,105.392 C60.7202807,105.392 62.003614,105.214667 63.263614,104.86 C64.523614,104.505333 65.7322807,104.010667 66.889614,103.376 L66.889614,103.376 L66.889614,94.584 L59.273614,94.584 L59.273614,98.112 L62.353614,98.112 L62.353614,101.416 C62.017614,101.584 61.6302807,101.700667 61.191614,101.766 C60.7529473,101.831333 60.281614,101.864 59.777614,101.864 C58.8069473,101.864 57.957614,101.668 57.229614,101.276 C56.501614,100.884 55.9369473,100.235333 55.535614,99.33 C55.1342807,98.4246667 54.933614,97.1973333 54.933614,95.648 C54.933614,94.08 55.129614,92.8433333 55.521614,91.938 C55.913614,91.0326667 56.487614,90.3933333 57.243614,90.02 C57.999614,89.6466667 58.909614,89.46 59.973614,89.46 C61.0002807,89.46 61.9942807,89.6373333 62.955614,89.992 C63.9169473,90.3466667 64.957614,90.8133333 66.077614,91.392 L66.077614,91.392 L66.077614,87.276 C65.0509473,86.8466667 63.977614,86.5106667 62.857614,86.268 C61.737614,86.0253333 60.589614,85.904 59.413614,85.904 C57.5842807,85.904 55.983614,86.2446667 54.611614,86.926 C53.239614,87.6073333 52.175614,88.6666667 51.419614,90.104 C50.663614,91.5413333 50.285614,93.3986667 50.285614,95.676 C50.285614,97.9906667 50.663614,99.862 51.419614,101.29 C52.175614,102.718 53.239614,103.758667 54.611614,104.412 C55.983614,105.065333 57.5842807,105.392 59.413614,105.392 Z" id="JPG" fill="#FFFFFF"></path>
        </g>
    </g>
</svg>