<?xml version="1.0" encoding="UTF-8"?>
<svg width="86px" height="112px" viewBox="0 0 86 112" version="1.1" xmlns="http://www.w3.org/2000/svg" xmlns:xlink="http://www.w3.org/1999/xlink">
    <!-- Generator: Sketch 63.1 (92452) - https://sketch.com -->
    <title>icon-pdf</title>
    <desc>Created with Sketch.</desc>
    <g id="icon-pdf" stroke="none" stroke-width="1" fill="none" fill-rule="evenodd">
        <g id="pdf" transform="translate(1.000000, 1.000000)" fill-rule="nonzero">
            <path d="M59.552093,0 L2.85795349,0 C1.27953488,0 0,1.28660714 0,3.78321429 L0,108.035714 C0,108.713393 1.27953488,110 2.85795349,110 L81.1420465,110 C82.7204651,110 84,108.713393 84,108.035714 L84,25.4925 C84,24.1253571 83.8183256,23.6853571 83.4979535,23.36125 L60.7671628,0.504821429 C60.4448372,0.182678571 60.0072558,0 59.552093,0 Z" id="Path" fill="#F4BEBE"></path>
            <polygon id="Path" fill="#F89A8A" points="60 0.302 60 24 83.698 24"></polygon>
            <path d="M25.028,65.648 L25.028,65.648 C24.332,65.648 23.664,65.422 23.094,64.996 C21.012,63.434 20.732,61.696 20.864,60.512 C21.228,57.256 25.254,53.848 32.834,50.376 C35.842,43.784 38.704,35.662 40.41,28.876 C38.414,24.532 36.474,18.896 37.888,15.59 C38.384,14.432 39.002,13.544 40.156,13.16 C40.612,13.008 41.764,12.816 42.188,12.816 C43.196,12.816 44.082,14.114 44.71,14.914 C45.3,15.666 46.638,17.26 43.964,28.518 C46.66,34.086 50.48,39.758 54.14,43.642 C56.762,43.168 59.018,42.926 60.856,42.926 C63.988,42.926 65.886,43.656 66.66,45.16 C67.3,46.404 67.038,47.858 65.88,49.48 C64.766,51.038 63.23,51.862 61.44,51.862 C59.008,51.862 56.176,50.326 53.018,47.292 C47.344,48.478 40.718,50.594 35.362,52.936 C33.69,56.484 32.088,59.342 30.596,61.438 C28.546,64.308 26.778,65.648 25.028,65.648 Z M30.352,55.396 C26.078,57.798 24.336,59.772 24.21,60.884 C24.19,61.068 24.136,61.552 25.072,62.268 C25.37,62.174 27.11,61.38 30.352,55.396 Z M57.626,46.512 C59.256,47.766 59.654,48.4 60.72,48.4 C61.188,48.4 62.522,48.38 63.14,47.518 C63.438,47.1 63.554,46.832 63.6,46.688 C63.354,46.558 63.028,46.294 61.25,46.294 C60.24,46.296 58.97,46.34 57.626,46.512 Z M42.686,33.348 C41.256,38.296 39.368,43.638 37.338,48.476 C41.518,46.854 46.062,45.438 50.33,44.436 C47.63,41.3 44.932,37.384 42.686,33.348 Z M41.472,16.424 C41.276,16.49 38.812,19.938 41.664,22.856 C43.562,18.626 41.558,16.396 41.472,16.424 Z" id="Shape" fill="#DA1D1F"></path>
            <path d="M81.1420465,110 L2.85795349,110 C1.27953488,110 0,108.728529 0,107.160059 L0,77 L84,77 L84,107.160059 C84,108.728529 82.7204651,110 81.1420465,110 Z" id="Path" fill="#DA1D1F"></path>
            <path d="M21.2939692,104 L21.2939692,97.868 L25.1579692,97.868 C27.3419692,97.868 29.0593026,97.308 30.3099692,96.188 C31.5606359,95.068 32.1859692,93.472 32.1859692,91.4 C32.1859692,89.328 31.5606359,87.7973333 30.3099692,86.808 C29.0593026,85.8186667 27.3419692,85.324 25.1579692,85.324 L25.1579692,85.324 L16.7579692,85.324 L16.7579692,104 L21.2939692,104 Z M24.5979692,94.368 L21.2939692,94.368 L21.2939692,88.852 L24.5979692,88.852 C25.0833026,88.852 25.4986359,88.9173333 25.8439692,89.048 C26.1893026,89.1786667 26.4646359,89.3746667 26.6699692,89.636 C26.8753026,89.8973333 27.0293026,90.196 27.1319692,90.532 C27.2346359,90.868 27.2859692,91.26 27.2859692,91.708 C27.2859692,92.0813333 27.2346359,92.4313333 27.1319692,92.758 C27.0293026,93.0846667 26.8753026,93.3693333 26.6699692,93.612 C26.4646359,93.8546667 26.1893026,94.0413333 25.8439692,94.172 C25.4986359,94.3026667 25.0833026,94.368 24.5979692,94.368 L24.5979692,94.368 Z M42.8567942,104 C46.0301275,104 48.3634609,103.211333 49.8567942,101.634 C51.3501275,100.056667 52.0967942,97.7373333 52.0967942,94.676 C52.0967942,91.596 51.3501275,89.2673333 49.8567942,87.69 C48.3634609,86.1126667 46.0301275,85.324 42.8567942,85.324 L42.8567942,85.324 L35.3527942,85.324 L35.3527942,104 L42.8567942,104 Z M42.3247942,100.5 L39.8887942,100.5 L39.8887942,88.824 L42.3247942,88.824 C44.0047942,88.824 45.2787942,89.286 46.1467942,90.21 C47.0147942,91.134 47.4487942,92.6226667 47.4487942,94.676 C47.4487942,96.692 47.0147942,98.1666667 46.1467942,99.1 C45.2787942,100.033333 44.0047942,100.5 42.3247942,100.5 L42.3247942,100.5 Z M59.7996157,104 L59.7996157,96.832 L66.8556157,96.832 L66.8556157,93.276 L59.7996157,93.276 L59.7996157,88.824 L67.9756157,88.824 L67.9756157,85.324 L55.2636157,85.324 L55.2636157,104 L59.7996157,104 Z" id="PDF" fill="#FFFFFF"></path>
        </g>
    </g>
</svg>