<?xml version="1.0" encoding="UTF-8"?>
<svg width="86px" height="112px" viewBox="0 0 86 112" version="1.1" xmlns="http://www.w3.org/2000/svg" xmlns:xlink="http://www.w3.org/1999/xlink">
    <!-- Generator: Sketch 63.1 (92452) - https://sketch.com -->
    <title>icon-doc</title>
    <desc>Created with Sketch.</desc>
    <g id="icon-doc" stroke="none" stroke-width="1" fill="none" fill-rule="evenodd">
        <g id="doc" fill-rule="nonzero">
            <path d="M60.97,0 L2.926,0 C1.31,0 0,1.31 0,3.852 L0,110 C0,110.69 1.31,112 2.926,112 L83.074,112 C84.69,112 86,110.69 86,110 L86,25.956 C86,24.564 85.814,24.116 85.486,23.786 L62.214,0.514 C61.884,0.186 61.436,0 60.97,0 Z" id="Path" fill="#A5E0FF"></path>
            <polygon id="Path" fill="#D9D7CA" points="62 0.302 62 24 85.698 24"></polygon>
            <path d="M24,26 L12,26 C10.896,26 10,25.104 10,24 C10,22.896 10.896,22 12,22 L24,22 C25.104,22 26,22.896 26,24 C26,25.104 25.104,26 24,26 Z" id="Path" fill="#8697CB"></path>
            <path d="M30,36 L12,36 C10.896,36 10,35.104 10,34 C10,32.896 10.896,32 12,32 L30,32 C31.104,32 32,32.896 32,34 C32,35.104 31.104,36 30,36 Z" id="Path" fill="#8697CB"></path>
            <path d="M38,36 C37.48,36 36.96,35.78 36.58,35.42 C36.22,35.04 36,34.52 36,34 C36,33.48 36.22,32.96 36.58,32.58 C37.32,31.84 38.68,31.84 39.42,32.58 C39.78,32.96 40,33.48 40,34 C40,34.52 39.78,35.04 39.42,35.42 C39.04,35.78 38.52,36 38,36 Z" id="Path" fill="#8697CB"></path>
            <path d="M62,36 L46,36 C44.896,36 44,35.104 44,34 C44,32.896 44.896,32 46,32 L62,32 C63.104,32 64,32.896 64,34 C64,35.104 63.104,36 62,36 Z" id="Path" fill="#8697CB"></path>
            <path d="M12,66 C11.48,66 10.96,65.78 10.58,65.42 C10.22,65.04 10,64.52 10,64 C10,63.48 10.22,62.96 10.58,62.58 C11.32,61.84 12.68,61.84 13.42,62.58 C13.78,62.96 14,63.46 14,64 C14,64.52 13.78,65.04 13.42,65.42 C13.04,65.78 12.52,66 12,66 Z" id="Path" fill="#8697CB"></path>
            <path d="M36,66 L20,66 C18.896,66 18,65.104 18,64 C18,62.896 18.896,62 20,62 L36,62 C37.104,62 38,62.896 38,64 C38,65.104 37.104,66 36,66 Z" id="Path" fill="#8697CB"></path>
            <path d="M74,36 L70,36 C68.896,36 68,35.104 68,34 C68,32.896 68.896,32 70,32 L74,32 C75.104,32 76,32.896 76,34 C76,35.104 75.104,36 74,36 Z" id="Path" fill="#8697CB"></path>
            <path d="M56,46 L12,46 C10.896,46 10,45.104 10,44 C10,42.896 10.896,42 12,42 L56,42 C57.104,42 58,42.896 58,44 C58,45.104 57.104,46 56,46 Z" id="Path" fill="#8697CB"></path>
            <path d="M74,46 L62,46 C60.896,46 60,45.104 60,44 C60,42.896 60.896,42 62,42 L74,42 C75.104,42 76,42.896 76,44 C76,45.104 75.104,46 74,46 Z" id="Path" fill="#8697CB"></path>
            <path d="M20,56 L12,56 C10.896,56 10,55.104 10,54 C10,52.896 10.896,52 12,52 L20,52 C21.104,52 22,52.896 22,54 C22,55.104 21.104,56 20,56 Z" id="Path" fill="#8697CB"></path>
            <path d="M48,56 L28,56 C26.896,56 26,55.104 26,54 C26,52.896 26.896,52 28,52 L48,52 C49.104,52 50,52.896 50,54 C50,55.104 49.104,56 48,56 Z" id="Path" fill="#8697CB"></path>
            <path d="M74,56 L56,56 C54.896,56 54,55.104 54,54 C54,52.896 54.896,52 56,52 L74,52 C75.104,52 76,52.896 76,54 C76,55.104 75.104,56 74,56 Z" id="Path" fill="#8697CB"></path>
            <path d="M83.074,112 L2.926,112 C1.31,112 0,110.69 0,109.074 L0,78 L86,78 L86,109.074 C86,110.69 84.69,112 83.074,112 Z" id="Path" fill="#0096E6"></path>
            <path d="M23.4097831,105 C26.5831164,105 28.9164497,104.211333 30.4097831,102.634 C31.9031164,101.056667 32.6497831,98.7373333 32.6497831,95.676 C32.6497831,92.596 31.9031164,90.2673333 30.4097831,88.69 C28.9164497,87.1126667 26.5831164,86.324 23.4097831,86.324 L23.4097831,86.324 L15.9057831,86.324 L15.9057831,105 L23.4097831,105 Z M22.8777831,101.5 L20.4417831,101.5 L20.4417831,89.824 L22.8777831,89.824 C24.5577831,89.824 25.8317831,90.286 26.6997831,91.21 C27.5677831,92.134 28.0017831,93.6226667 28.0017831,95.676 C28.0017831,97.692 27.5677831,99.1666667 26.6997831,100.1 C25.8317831,101.033333 24.5577831,101.5 22.8777831,101.5 L22.8777831,101.5 Z M44.1326046,105.392 C47.0259379,105.392 49.2706046,104.570667 50.8666046,102.928 C52.4626046,101.285333 53.2606046,98.8586667 53.2606046,95.648 C53.2606046,93.4266667 52.8872713,91.6066667 52.1406046,90.188 C51.3939379,88.7693333 50.3346046,87.71 48.9626046,87.01 C47.5906046,86.31 45.9806046,85.96 44.1326046,85.96 C41.2579379,85.96 39.0179379,86.7813333 37.4126046,88.424 C35.8072713,90.0666667 35.0046046,92.484 35.0046046,95.676 C35.0046046,97.8786667 35.3826046,99.6986667 36.1386046,101.136 C36.8946046,102.573333 37.9539379,103.642 39.3166046,104.342 C40.6792713,105.042 42.2846046,105.392 44.1326046,105.392 Z M44.1326046,101.668 C43.1806046,101.668 42.3779379,101.476667 41.7246046,101.094 C41.0712713,100.711333 40.5719379,100.086 40.2266046,99.218 C39.8812713,98.35 39.7086046,97.1786667 39.7086046,95.704 C39.7086046,94.2106667 39.8812713,93.0253333 40.2266046,92.148 C40.5719379,91.2706667 41.0712713,90.636 41.7246046,90.244 C42.3779379,89.852 43.1806046,89.656 44.1326046,89.656 C45.0846046,89.656 45.8919379,89.8473333 46.5546046,90.23 C47.2172713,90.6126667 47.7212713,91.2426667 48.0666046,92.12 C48.4119379,92.9973333 48.5846046,94.1733333 48.5846046,95.648 C48.5846046,97.104 48.4119379,98.2753333 48.0666046,99.162 C47.7212713,100.048667 47.2172713,100.688 46.5546046,101.08 C45.8919379,101.472 45.0846046,101.668 44.1326046,101.668 Z M64.6986132,105.364 C65.3706132,105.364 66.0659465,105.308 66.7846132,105.196 C67.5032798,105.084 68.1939465,104.93 68.8566132,104.734 C69.5192798,104.538 70.1119465,104.309333 70.6346132,104.048 L70.6346132,104.048 L70.6346132,100.1 C69.6639465,100.734667 68.7399465,101.182667 67.8626132,101.444 C66.9852798,101.705333 66.2012798,101.836 65.5106132,101.836 C64.3532798,101.836 63.3779465,101.644667 62.5846132,101.262 C61.7912798,100.879333 61.1939465,100.24 60.7926132,99.344 C60.3912798,98.448 60.1906132,97.2253333 60.1906132,95.676 C60.1906132,94.1266667 60.3912798,92.8946667 60.7926132,91.98 C61.1939465,91.0653333 61.7726132,90.412 62.5286132,90.02 C63.2846132,89.628 64.2132798,89.432 65.3146132,89.432 C66.0986132,89.432 66.9386132,89.572 67.8346132,89.852 C68.7306132,90.132 69.6639465,90.5893333 70.6346132,91.224 L70.6346132,91.224 L70.6346132,87.276 C69.6826132,86.8466667 68.7026132,86.5106667 67.6946132,86.268 C66.6866132,86.0253333 65.6879465,85.904 64.6986132,85.904 C61.5812798,85.904 59.2666132,86.73 57.7546132,88.382 C56.2426132,90.034 55.4866132,92.4653333 55.4866132,95.676 C55.4866132,98.98 56.2752798,101.420667 57.8526132,102.998 C59.4299465,104.575333 61.7119465,105.364 64.6986132,105.364 Z" id="DOC" fill="#FFFFFF"></path>
        </g>
    </g>
</svg>