<?xml version="1.0" encoding="UTF-8"?>
<svg width="87px" height="112px" viewBox="0 0 87 112" version="1.1" xmlns="http://www.w3.org/2000/svg" xmlns:xlink="http://www.w3.org/1999/xlink">
    <!-- Generator: Sketch 63.1 (92452) - https://sketch.com -->
    <title>icon-png</title>
    <desc>Created with Sketch.</desc>
    <g id="icon-png" stroke="none" stroke-width="1" fill="none" fill-rule="evenodd">
        <g id="PNG" fill-rule="nonzero">
            <path d="M60.97,0 L2.926,0 C1.31,0 0,1.31 0,3.852 L0,110 C0,110.69 1.31,112 2.926,112 L83.074,112 C84.69,112 86,110.69 86,110 L86,25.956 C86,24.564 85.814,24.116 85.486,23.786 L62.214,0.514 C61.884,0.186 61.436,0 60.97,0 Z" id="Path" fill="#A5E1FF"></path>
            <polygon id="Path" fill="#7DC6EA" points="62 0.302 62 24 85.698 24"></polygon>
            <circle id="Oval" fill="#F3D55B" cx="24.862" cy="28.862" r="9.138"></circle>
            <polygon id="Path" fill="#11B1FF" points="0 78 22 78 86 78 86 56 66 37 45 60 34.034 49.034"></polygon>
            <path d="M83.074,112 L2.926,112 C1.31,112 0,110.69 0,109.074 L0,78 L86,78 L86,109.074 C86,110.69 84.69,112 83.074,112 Z" id="Path" fill="#2B6CAA"></path>
            <path d="M22.2065824,105 L22.2065824,98.868 L26.0705824,98.868 C28.2545824,98.868 29.9719157,98.308 31.2225824,97.188 C32.4732491,96.068 33.0985824,94.472 33.0985824,92.4 C33.0985824,90.328 32.4732491,88.7973333 31.2225824,87.808 C29.9719157,86.8186667 28.2545824,86.324 26.0705824,86.324 L26.0705824,86.324 L17.6705824,86.324 L17.6705824,105 L22.2065824,105 Z M25.5105824,95.368 L22.2065824,95.368 L22.2065824,89.852 L25.5105824,89.852 C25.9959157,89.852 26.4112491,89.9173333 26.7565824,90.048 C27.1019157,90.1786667 27.3772491,90.3746667 27.5825824,90.636 C27.7879157,90.8973333 27.9419157,91.196 28.0445824,91.532 C28.1472491,91.868 28.1985824,92.26 28.1985824,92.708 C28.1985824,93.0813333 28.1472491,93.4313333 28.0445824,93.758 C27.9419157,94.0846667 27.7879157,94.3693333 27.5825824,94.612 C27.3772491,94.8546667 27.1019157,95.0413333 26.7565824,95.172 C26.4112491,95.3026667 25.9959157,95.368 25.5105824,95.368 L25.5105824,95.368 Z M40.4374073,105 L40.437,93.622 L49.1454073,105 L52.5614073,105 L52.5614073,86.324 L48.3894073,86.324 L48.389,97.45 L40.1294073,86.324 L36.2654073,86.324 L36.2654073,105 L40.4374073,105 Z M64.8562084,105.392 C66.162875,105.392 67.4462084,105.214667 68.7062084,104.86 C69.9662084,104.505333 71.174875,104.010667 72.3322084,103.376 L72.3322084,103.376 L72.3322084,94.584 L64.7162084,94.584 L64.7162084,98.112 L67.7962084,98.112 L67.7962084,101.416 C67.4602084,101.584 67.072875,101.700667 66.6342084,101.766 C66.1955417,101.831333 65.7242084,101.864 65.2202084,101.864 C64.2495417,101.864 63.4002084,101.668 62.6722084,101.276 C61.9442084,100.884 61.3795417,100.235333 60.9782084,99.33 C60.576875,98.4246667 60.3762084,97.1973333 60.3762084,95.648 C60.3762084,94.08 60.5722084,92.8433333 60.9642084,91.938 C61.3562084,91.0326667 61.9302084,90.3933333 62.6862084,90.02 C63.4422084,89.6466667 64.3522084,89.46 65.4162084,89.46 C66.442875,89.46 67.436875,89.6373333 68.3982084,89.992 C69.3595417,90.3466667 70.4002084,90.8133333 71.5202084,91.392 L71.5202084,91.392 L71.5202084,87.276 C70.4935417,86.8466667 69.4202084,86.5106667 68.3002084,86.268 C67.1802084,86.0253333 66.0322084,85.904 64.8562084,85.904 C63.026875,85.904 61.4262084,86.2446667 60.0542084,86.926 C58.6822084,87.6073333 57.6182084,88.6666667 56.8622084,90.104 C56.1062084,91.5413333 55.7282084,93.3986667 55.7282084,95.676 C55.7282084,97.9906667 56.1062084,99.862 56.8622084,101.29 C57.6182084,102.718 58.6822084,103.758667 60.0542084,104.412 C61.4262084,105.065333 63.026875,105.392 64.8562084,105.392 Z" fill="#FFFFFF"></path>
        </g>
    </g>
</svg>