<?xml version="1.0" encoding="UTF-8"?>
<svg width="86px" height="112px" viewBox="0 0 86 112" version="1.1" xmlns="http://www.w3.org/2000/svg" xmlns:xlink="http://www.w3.org/1999/xlink">
    <!-- Generator: Sketch 63.1 (92452) - https://sketch.com -->
    <title>icon-xls</title>
    <desc>Created with Sketch.</desc>
    <g id="icon-xls" stroke="none" stroke-width="1" fill="none" fill-rule="evenodd">
        <g id="xls" fill-rule="nonzero">
            <path d="M60.97,0 L2.926,0 C1.31,0 0,1.31 0,3.852 L0,110 C0,110.69 1.31,112 2.926,112 L83.074,112 C84.69,112 86,110.69 86,110 L86,25.956 C86,24.564 85.814,24.116 85.486,23.786 L62.214,0.514 C61.884,0.186 61.436,0 60.97,0 Z" id="Path" fill="#BBF9A0"></path>
            <polygon id="Path" fill="#D9D7CA" points="62 0.302 62 24 85.698 24"></polygon>
            <path d="M83.074,112 L2.926,112 C1.31,112 0,110.69 0,109.074 L0,78 L86,78 L86,109.074 C86,110.69 84.69,112 83.074,112 Z" id="Path" fill="#4AA961"></path>
            <path d="M23.112965,105 L26.694,99.086 L30.728965,105 L36.356965,105 L30.02,95.712 L36.160965,86.324 L31.148965,86.324 L27.664,92.259 L23.616965,86.324 L17.988965,86.324 L24.386,95.703 L18.212965,105 L23.112965,105 Z M51.3174091,105 L51.3174091,101.444 L43.1974091,101.444 L43.1974091,86.324 L38.6614091,86.324 L38.6614091,105 L51.3174091,105 Z M60.4594244,105.392 C61.8967578,105.392 63.1100911,105.126 64.0994244,104.594 C65.0887578,104.062 65.8447578,103.334 66.3674244,102.41 C66.8900911,101.486 67.1514244,100.464 67.1514244,99.344 C67.1514244,98.504 67.0207578,97.7853333 66.7594244,97.188 C66.4980911,96.5906667 66.1247578,96.0866667 65.6394244,95.676 C65.1540911,95.2653333 64.5894244,94.9246667 63.9454244,94.654 C63.3014244,94.3833333 62.5967578,94.136 61.8314244,93.912 C61.1407578,93.688 60.5154244,93.478 59.9554244,93.282 C59.3954244,93.086 58.9567578,92.8386667 58.6394244,92.54 C58.3220911,92.2413333 58.1634244,91.8306667 58.1634244,91.308 C58.1634244,90.86 58.2940911,90.4913333 58.5554244,90.202 C58.8167578,89.9126667 59.1807578,89.7026667 59.6474244,89.572 C60.1140911,89.4413333 60.6274244,89.3853333 61.1874244,89.404 C61.8220911,89.4226667 62.4287578,89.5346667 63.0074244,89.74 C63.5860911,89.9453333 64.1414244,90.202 64.6734244,90.51 C65.2054244,90.818 65.6860911,91.1493333 66.1154244,91.504 L66.1154244,91.504 L66.1154244,87.136 C65.5554244,86.856 65.0047578,86.6273333 64.4634244,86.45 C63.9220911,86.2726667 63.3574244,86.1373333 62.7694244,86.044 C62.1814244,85.9506667 61.5047578,85.904 60.7394244,85.904 C59.5074244,85.904 58.4340911,86.0673333 57.5194244,86.394 C56.6047578,86.7206667 55.8534244,87.164 55.2654244,87.724 C54.6774244,88.284 54.2434244,88.9186667 53.9634244,89.628 C53.6834244,90.3373333 53.5434244,91.0746667 53.5434244,91.84 C53.5434244,92.68 53.6647578,93.3893333 53.9074244,93.968 C54.1500911,94.5466667 54.4767578,95.0366667 54.8874244,95.438 C55.2980911,95.8393333 55.7647578,96.1706667 56.2874244,96.432 C56.8100911,96.6933333 57.3420911,96.908 57.8834244,97.076 C58.7420911,97.3746667 59.5167578,97.6406667 60.2074244,97.874 C60.8980911,98.1073333 61.4534244,98.378 61.8734244,98.686 C62.2934244,98.994 62.5034244,99.4 62.5034244,99.904 C62.5034244,100.576 62.2747578,101.075333 61.8174244,101.402 C61.3600911,101.728667 60.7020911,101.892 59.8434244,101.892 C58.8727578,101.892 57.8460911,101.714667 56.7634244,101.36 C55.6807578,101.005333 54.7100911,100.482667 53.8514244,99.792 L53.8514244,99.792 L53.8514244,104.104 C54.4674244,104.402667 55.1020911,104.645333 55.7554244,104.832 C56.4087578,105.018667 57.1180911,105.158667 57.8834244,105.252 C58.6487578,105.345333 59.5074244,105.392 60.4594244,105.392 Z" id="XLS" fill="#FFFFFF"></path>
            <path d="M33,32 L33,24 L9,24 L9,32 L9,36 L9,40 L9,44 L9,48 L9,52 L9,56 L9,60 L9,68 L29,68 L33,68 L75,68 L75,60 L75,56 L75,52 L75,48 L75,44 L75,40 L75,32 L33,32 Z M13,28 L29,28 L29,32 L13,32 L13,28 Z M13,36 L29,36 L29,40 L13,40 L13,36 Z M13,44 L29,44 L29,48 L13,48 L13,44 Z M13,52 L29,52 L29,56 L13,56 L13,52 Z M29,64 L13,64 L13,60 L29,60 L29,64 Z M71,64 L33,64 L33,60 L71,60 L71,64 Z M71,56 L33,56 L33,52 L71,52 L71,56 Z M71,48 L33,48 L33,44 L71,44 L71,48 Z M33,40 L33,36 L71,36 L71,40 L33,40 Z" id="Shape" fill="#4AA961"></path>
        </g>
    </g>
</svg>