<svg width="20" height="20" viewBox="0 0 20 20" fill="none" xmlns="http://www.w3.org/2000/svg">
<path d="M10 1C9.46263 1 9.02703 1.43562 9.02703 1.97297V9.02706H1.97297C1.43562 9.02706 1 9.46266 1 10C1 10.5374 1.43562 10.973 1.97297 10.973H9.02703V18.027C9.02703 18.5644 9.46263 19 10 19C10.5374 19 10.973 18.5644 10.973 18.027V10.973H18.027C18.5644 10.973 19 10.5374 19 10C19 9.46266 18.5644 9.02706 18.027 9.02706H10.973V1.97297C10.973 1.43562 10.5374 1 10 1Z" fill="white" stroke="white"/>
</svg>
