<?xml version="1.0" encoding="UTF-8"?>
<svg width="86px" height="112px" viewBox="0 0 86 112" version="1.1" xmlns="http://www.w3.org/2000/svg" xmlns:xlink="http://www.w3.org/1999/xlink">
    <!-- Generator: Sketch 63.1 (92452) - https://sketch.com -->
    <title>icon-eml</title>
    <desc>Created with Sketch.</desc>
    <g id="icon-eml" stroke="none" stroke-width="1" fill="none" fill-rule="evenodd">
        <g id="doc-copy" fill-rule="nonzero">
            <path d="M60.97,0 L2.926,0 C1.31,0 0,1.31 0,3.852 L0,110 C0,110.69 1.31,112 2.926,112 L83.074,112 C84.69,112 86,110.69 86,110 L86,25.956 C86,24.564 85.814,24.116 85.486,23.786 L62.214,0.514 C61.884,0.186 61.436,0 60.97,0 Z" id="Path" fill="#FFCCA5"></path>
            <polygon id="Path" fill="#D9D7CA" points="62 0.302 62 24 85.698 24"></polygon>
            <path d="M83.074,112 L2.926,112 C1.31,112 0,110.69 0,109.074 L0,78 L86,78 L86,109.074 C86,110.69 84.69,112 83.074,112 Z" id="Path" fill="#E65A00"></path>
            <path d="M29.8777745,105 L29.8777745,101.5 L21.6177745,101.5 L21.6177745,97.412 L28.7857745,97.412 L28.7857745,93.884 L21.6177745,93.884 L21.6177745,89.824 L29.8777745,89.824 L29.8777745,86.324 L17.0817745,86.324 L17.0817745,105 L29.8777745,105 Z M38.0229803,105 L38.022,92.392 L43.3709803,99.68 L48.858,92.387 L48.8589803,105 L53.3949803,105 L53.3949803,86.324 L48.8869803,86.324 L43.528,93.604 L38.3029803,86.324 L33.6829803,86.324 L33.6829803,105 L38.0229803,105 Z M70.0242101,105 L70.0242101,101.444 L61.9042101,101.444 L61.9042101,86.324 L57.3682101,86.324 L57.3682101,105 L70.0242101,105 Z" id="EML" fill="#FFFFFF"></path>
        </g>
        <g id="eml" transform="translate(23.000000, 22.000000)" fill-rule="nonzero">
            <polygon id="Path" fill="#F6B700" points="2 24 38 24 38 42 2 42"></polygon>
            <g id="Group" transform="translate(3.000000, 0.000000)" fill="#FFFFFF">
                <polygon id="Path" points="15.9556896 32.9545551 18.7620104 34.929661 31.6632657 25.8441737 31.6632657 0.16954438 0.248113775 0.16954438 0.248113775 25.8441737 13.1502379 34.929661"></polygon>
            </g>
            <path d="M23.9998525,12 L16.0001477,12 C14.8956415,12 14,11.105997 14,10.0004428 C14,8.8940032 14.8956415,8 16.0001477,8 L23.9998525,8 C25.1034738,8 26,8.8940032 26,10.0004428 C26,11.105997 25.1034738,12 23.9998525,12 Z" id="Path" fill="#AFB6BB"></path>
            <path d="M27.9999115,20 L12.0000887,20 C10.8956151,20 10,19.1061948 10,18 C10,16.8938054 10.8956151,16 12.0000887,16 L27.9999115,16 C29.1035002,16 30,16.8938054 30,18 C30,19.1061948 29.1035002,20 27.9999115,20 Z" id="Path" fill="#AFB6BB"></path>
            <polygon id="Path" fill="#C19016" points="40 44 0 44 19.9995574 30"></polygon>
            <polygon id="Path" fill="#F6B700" points="22 32 40 44 40 20"></polygon>
            <polygon id="Path" fill="#F6B700" points="0 20 0 44 18 32"></polygon>
        </g>
    </g>
</svg>