<svg id="Layer_1" enable-background="new 0 0 512 512" height="512" viewBox="0 0 512 512" width="512" xmlns="http://www.w3.org/2000/svg"><path d="m339.1011-.002c-95.3379 0-172.9004 77.563-172.9004 172.9009 0 41.9142 14.9958 80.3891 39.8984 110.3517l-29.0757 29.092-28.5552-28.5551-131.998 131.9674c-21.9678 22.0083-21.9629 57.7905.0107 79.7646 10.9883 10.9888 25.4258 16.4824 39.8721 16.4824 14.4434 0 28.8955-5.4946 39.9043-16.4834l131.9551-131.9873-28.561-28.5607 29.0737-29.09c29.9661 24.9149 68.4502 39.9193 110.376 39.9193 95.3379 0 172.9014-77.563 172.9014-172.9009s-77.5635-172.9009-172.9014-172.9009zm-265.4629 472.8843c-9.5293 9.5132-25.0205 9.5195-34.5303.0103-9.5078-9.5088-9.5039-24.9995-.001-34.5195l109.3594-109.3335 34.4941 34.4946zm265.4629-159.0825c-77.6924 0-140.9004-63.208-140.9004-140.9009s63.208-140.9009 140.9004-140.9009c77.6934 0 140.9014 63.208 140.9014 140.9009s-63.2081 140.9009-140.9014 140.9009zm-19.6602-172.4228c0 9.2168 1.8398 11.4097 22.9658 15.8501 9.7549 2.0498 20.8115 4.3735 30.0381 10.4531 12.1738 8.02 18.3457 20.3721 18.3457 36.7124 0 21.0701-14.9973 38.9712-35.6895 45.1805v21.7306h-32v-21.7335c-20.6755-6.2119-35.6602-24.1107-35.6602-45.1776h32c0 8.4136 9.0029 15.522 19.6602 15.522 10.6729 0 19.6895-7.1084 19.6895-15.522 0-9.2168-1.8398-11.4097-22.9658-15.8501-9.7549-2.0498-20.8115-4.3735-30.0381-10.4531-12.1738-8.02-18.3457-20.3721-18.3457-36.7124 0-21.0669 14.9846-38.9657 35.6602-45.1776v-21.7336h32v21.7306c20.6921 6.2094 35.6895 24.1105 35.6895 45.1805h-32c0-8.4136-9.0166-15.522-19.6895-15.522-10.6573.0001-19.6602 7.1085-19.6602 15.5221z"/></svg>