<svg height="1063pt" viewBox="-33 -33 1063 1063.7489" width="1063pt" xmlns="http://www.w3.org/2000/svg"><path d="m448.15625 64.125h405.109375c48.304687 0 87.644531 39.339844 87.644531 87.644531v586.242188h25.320313c16.125 0 29.207031 13.074219 29.207031 29.207031v198.8125c0 16.136719-13.082031 29.214844-29.207031 29.214844h-938.757813c-16.140625 0-29.222656-13.078125-29.222656-29.214844v-198.8125c0-16.132812 13.082031-29.207031 29.222656-29.207031h25.3125v-586.242188c0-48.304687 39.335938-87.644531 87.636719-87.644531h35.0625l.078125-37.003906c0-19.8125 19.988281-34.3125 39.070312-27.386719l43.625 15.863281 43.636719-15.863281c6.199219-2.25 13.179688-2.425781 19.851563 0l43.636718 15.863281 41.464844-15.078125c21.785156-8.902343 41.308594 6.953125 41.308594 26.601563zm-276.566406 401.214844c-16.128906 0-29.214844-13.085938-29.214844-29.214844 0-16.136719 13.085938-29.21875 29.214844-29.21875h3.894531v-284.355469h-35.0625c-16.050781 0-29.203125 13.167969-29.203125 29.21875v586.242188h771.261719v-586.242188c0-16.050781-13.164063-29.21875-29.214844-29.21875h-405.109375v284.355469h3.894531c16.136719 0 29.214844 13.082031 29.214844 29.21875 0 16.128906-13.078125 29.210938-29.214844 29.210938h-280.460937zm615.449218 175.285156c-16.132812 0-29.210937 13.082031-29.210937 29.207031 0 16.148438 13.078125 29.21875 29.210937 29.21875 16.132813 0 29.214844-13.070312 29.214844-29.21875 0-16.125-13.082031-29.207031-29.214844-29.207031zm-116.855468 0c-16.136719 0-29.210938 13.082031-29.210938 29.207031 0 16.148438 13.074219 29.21875 29.210938 29.21875 16.132812 0 29.214844-13.070312 29.214844-29.21875 0-16.125-13.082032-29.207031-29.214844-29.207031zm-116.855469 0c-16.132813 0-29.21875 13.082031-29.21875 29.207031 0 16.148438 13.085937 29.21875 29.21875 29.21875 16.140625 0 29.222656-13.070312 29.222656-29.21875 0-16.125-13.082031-29.207031-29.222656-29.207031zm233.710937-116.855469c-16.132812 0-29.210937 13.074219-29.210937 29.210938 0 16.132812 13.078125 29.214843 29.210937 29.214843 16.132813 0 29.214844-13.082031 29.214844-29.214843 0-16.136719-13.082031-29.210938-29.214844-29.210938zm-116.855468 0c-16.136719 0-29.210938 13.074219-29.210938 29.210938 0 16.132812 13.074219 29.214843 29.210938 29.214843 16.132812 0 29.214844-13.082031 29.214844-29.214843 0-16.136719-13.082032-29.210938-29.214844-29.210938zm-116.855469 0c-16.132813 0-29.21875 13.074219-29.21875 29.210938 0 16.132812 13.085937 29.214843 29.21875 29.214843 16.140625 0 29.222656-13.082031 29.222656-29.214843 0-16.136719-13.082031-29.210938-29.222656-29.210938zm233.710937-116.863281c-16.132812 0-29.210937 13.082031-29.210937 29.21875 0 16.128906 13.078125 29.214844 29.210937 29.214844 16.132813 0 29.214844-13.085938 29.214844-29.214844 0-16.136719-13.082031-29.21875-29.214844-29.21875zm-116.855468 0c-16.136719 0-29.210938 13.082031-29.210938 29.21875 0 16.128906 13.074219 29.214844 29.210938 29.214844 16.132812 0 29.214844-13.085938 29.214844-29.214844 0-16.136719-13.082032-29.21875-29.214844-29.21875zm-116.855469 0c-16.132813 0-29.21875 13.082031-29.21875 29.21875 0 16.128906 13.085937 29.214844 29.21875 29.214844 16.140625 0 29.222656-13.085938 29.222656-29.214844 0-16.136719-13.082031-29.21875-29.222656-29.21875zm-11.683594-225.914062c-16.140625 0-29.222656 13.070312-29.222656 29.203124v109.070313c0 16.136719 13.082031 29.214844 29.222656 29.214844h264.871094c16.140625 0 29.222656-13.078125 29.222656-29.214844v-109.070313c0-16.132812-13.082031-29.203124-29.222656-29.203124zm235.652344 58.421874h-206.445313v50.632813h206.445313zm-543.386719 167.492188h155.820313v-338.160156l-14.421875 5.238281c-6.679688 2.421875-13.667969 2.246094-19.855469 0l-43.636719-15.859375-43.628906 15.859375c-6.675781 2.421875-13.664062 2.246094-19.855469 0l-14.421875-5.238281zm229.558594 488.933594h66.75c16.140625 0 29.222656-13.082032 29.222656-29.21875 0-16.125-13.082031-29.207032-29.222656-29.207032h-66.75c-16.140625 0-29.210938 13.082032-29.210938 29.207032 0 16.136718 13.070313 29.21875 29.210938 29.21875zm-406.792969-99.398438v140.375h880.335938v-140.375zm0 0" fill-rule="evenodd"/></svg>