<svg id="warning-orange" xmlns="http://www.w3.org/2000/svg" width="13.947" height="12.75" viewBox="0 0 13.947 12.75">
  <g id="Group_1" data-name="Group 1">
    <path id="Path_1" data-name="Path 1" d="M218.942,333.382a.717.717,0,0,0,0,1.434.717.717,0,0,0,0-1.434Z" transform="translate(-211.968 -324.422)" fill="#ffa200"/>
    <path id="Path_2" data-name="Path 2" d="M13.608,32.382a2.448,2.448,0,0,0,.006-2.477l-4.49-7.776a2.474,2.474,0,0,0-4.295,0L.333,29.91a2.483,2.483,0,0,0,2.15,3.722h8.968A2.469,2.469,0,0,0,13.608,32.382Zm-.975-.562a1.355,1.355,0,0,1-1.184.685H2.48a1.336,1.336,0,0,1-1.17-.671,1.357,1.357,0,0,1,0-1.368l4.5-7.781a1.35,1.35,0,0,1,2.345,0l4.493,7.781A1.339,1.339,0,0,1,12.633,31.82Z" transform="translate(0 -20.882)" fill="#ffa200"/>
    <path id="Path_3" data-name="Path 3" d="M218.278,157.2a.78.78,0,0,0-.553.783c.017.227.032.456.049.682.049.863.1,1.709.146,2.572a.525.525,0,0,0,.536.5.536.536,0,0,0,.536-.522c0-.178,0-.341.017-.522.032-.553.066-1.107.1-1.66.017-.358.049-.717.066-1.075a.885.885,0,0,0-.066-.358A.719.719,0,0,0,218.278,157.2Z" transform="translate(-211.483 -153.269)" fill="#ffa200"/>
  </g>
</svg>
