<svg xmlns="http://www.w3.org/2000/svg" width="25" height="25" viewBox="0 0 25 25">
  <g id="calendar_1_" data-name="calendar (1)" opacity="0.5">
    <g id="Group_29" data-name="Group 29">
      <g id="Group_28" data-name="Group 28">
        <path id="Path_2" data-name="Path 2" d="M22.07,1.953H20.9V0H18.945V1.953H6.055V0H4.1V1.953H2.93A2.933,2.933,0,0,0,0,4.883V22.07A2.933,2.933,0,0,0,2.93,25H22.07A2.933,2.933,0,0,0,25,22.07V4.883A2.933,2.933,0,0,0,22.07,1.953Zm.977,20.117a.978.978,0,0,1-.977.977H2.93a.978.978,0,0,1-.977-.977V9.18H23.047Zm0-14.844H1.953V4.883a.978.978,0,0,1,.977-.977H4.1V5.859H6.055V3.906H18.945V5.859H20.9V3.906H22.07a.978.978,0,0,1,.977.977Z" fill="#fff"/>
      </g>
    </g>
    <g id="Group_31" data-name="Group 31" transform="translate(3.667 11)">
      <g id="Group_30" data-name="Group 30">
        <rect id="Rectangle_19" data-name="Rectangle 19" width="2" height="2" fill="#fff"/>
      </g>
    </g>
    <g id="Group_33" data-name="Group 33" transform="translate(7.667 11)">
      <g id="Group_32" data-name="Group 32">
        <rect id="Rectangle_20" data-name="Rectangle 20" width="2" height="2" fill="#fff"/>
      </g>
    </g>
    <g id="Group_35" data-name="Group 35" transform="translate(11.667 11)">
      <g id="Group_34" data-name="Group 34">
        <rect id="Rectangle_21" data-name="Rectangle 21" width="1" height="2" fill="#fff"/>
      </g>
    </g>
    <g id="Group_37" data-name="Group 37" transform="translate(14.667 11)">
      <g id="Group_36" data-name="Group 36">
        <rect id="Rectangle_22" data-name="Rectangle 22" width="2" height="2" fill="#fff"/>
      </g>
    </g>
    <g id="Group_39" data-name="Group 39" transform="translate(18.667 11)">
      <g id="Group_38" data-name="Group 38">
        <rect id="Rectangle_23" data-name="Rectangle 23" width="2" height="2" fill="#fff"/>
      </g>
    </g>
    <g id="Group_41" data-name="Group 41" transform="translate(3.667 15)">
      <g id="Group_40" data-name="Group 40">
        <rect id="Rectangle_24" data-name="Rectangle 24" width="2" height="2" fill="#fff"/>
      </g>
    </g>
    <g id="Group_43" data-name="Group 43" transform="translate(7.667 15)">
      <g id="Group_42" data-name="Group 42">
        <rect id="Rectangle_25" data-name="Rectangle 25" width="2" height="2" fill="#fff"/>
      </g>
    </g>
    <g id="Group_45" data-name="Group 45" transform="translate(11.667 15)">
      <g id="Group_44" data-name="Group 44">
        <rect id="Rectangle_26" data-name="Rectangle 26" width="1" height="2" fill="#fff"/>
      </g>
    </g>
    <g id="Group_47" data-name="Group 47" transform="translate(14.667 15)">
      <g id="Group_46" data-name="Group 46">
        <rect id="Rectangle_27" data-name="Rectangle 27" width="2" height="2" fill="#fff"/>
      </g>
    </g>
    <g id="Group_49" data-name="Group 49" transform="translate(3.667 19)">
      <g id="Group_48" data-name="Group 48">
        <rect id="Rectangle_28" data-name="Rectangle 28" width="2" height="2" fill="#fff"/>
      </g>
    </g>
    <g id="Group_51" data-name="Group 51" transform="translate(7.667 19)">
      <g id="Group_50" data-name="Group 50">
        <rect id="Rectangle_29" data-name="Rectangle 29" width="2" height="2" fill="#fff"/>
      </g>
    </g>
    <g id="Group_53" data-name="Group 53" transform="translate(11.667 19)">
      <g id="Group_52" data-name="Group 52">
        <rect id="Rectangle_30" data-name="Rectangle 30" width="1" height="2" fill="#fff"/>
      </g>
    </g>
    <g id="Group_55" data-name="Group 55" transform="translate(14.667 19)">
      <g id="Group_54" data-name="Group 54">
        <rect id="Rectangle_31" data-name="Rectangle 31" width="2" height="2" fill="#fff"/>
      </g>
    </g>
    <g id="Group_57" data-name="Group 57" transform="translate(18.667 15)">
      <g id="Group_56" data-name="Group 56">
        <rect id="Rectangle_32" data-name="Rectangle 32" width="2" height="2" fill="#fff"/>
      </g>
    </g>
  </g>
</svg>
