<svg width="512" height="512" viewBox="0 0 512 512" fill="none" xmlns="http://www.w3.org/2000/svg">
<path d="M256 469.333C373.821 469.333 469.333 373.821 469.333 256C469.333 138.179 373.821 42.6667 256 42.6667C138.179 42.6667 42.6665 138.179 42.6665 256C42.6665 373.821 138.179 469.333 256 469.333Z" fill="#29C839"/>
<path d="M231.275 341.333C225.46 341.309 219.716 340.058 214.419 337.661C209.121 335.264 204.39 331.776 200.533 327.424C199.862 326.685 199.242 325.901 198.677 325.077L174.357 289.323C171.18 284.641 169.993 278.888 171.058 273.331C172.122 267.774 175.35 262.868 180.032 259.691C184.714 256.514 190.466 255.327 196.023 256.391C201.58 257.455 206.487 260.683 209.664 265.365L232.192 298.667L301.717 181.099C303.164 178.699 305.07 176.608 307.325 174.945C309.58 173.282 312.14 172.079 314.86 171.406C317.58 170.732 320.406 170.601 323.177 171.019C325.947 171.438 328.608 172.398 331.008 173.845C333.407 175.292 335.498 177.198 337.162 179.453C338.825 181.708 340.027 184.268 340.701 186.988C341.374 189.708 341.506 192.534 341.087 195.305C340.668 198.075 339.708 200.736 338.261 203.136L267.371 320.619C264.027 326.323 259.388 331.16 253.829 334.74C248.27 338.32 241.947 340.542 235.371 341.227C233.92 341.333 232.533 341.333 231.275 341.333Z" fill="#D6FFED"/>
</svg>
