<svg width="512" height="512" viewBox="0 0 512 512" fill="none" xmlns="http://www.w3.org/2000/svg">
<path d="M57.7488 134.251C53.7258 130.365 48.3368 128.214 42.7428 128.263C37.1498 128.312 31.7988 130.555 27.8438 134.511C23.8888 138.466 21.6448 143.817 21.5958 149.41C21.5478 155.004 23.6978 160.393 27.5838 164.416L240.917 377.749C244.918 381.749 250.343 383.995 256 383.995C261.657 383.995 267.082 381.749 271.083 377.749L484.416 164.416C488.302 160.393 490.452 155.004 490.403 149.41C490.355 143.817 488.111 138.466 484.156 134.511C480.201 130.555 474.85 128.312 469.256 128.263C463.663 128.214 458.274 130.365 454.25 134.251L256 332.501L57.7488 134.251Z" fill="black"/>
</svg>
