<svg width="512" height="512" viewBox="0 0 512 512" fill="none" xmlns="http://www.w3.org/2000/svg">
<path d="M440 144H336V40C336 37.8783 335.157 35.8434 333.657 34.3431C332.157 32.8429 330.122 32 328 32H104C101.878 32 99.8434 32.8429 98.3431 34.3431C96.8429 35.8434 96 37.8783 96 40V264C96 266.122 96.8429 268.157 98.3431 269.657C99.8434 271.157 101.878 272 104 272H320V400H104C101.878 400 99.8434 400.843 98.3431 402.343C96.8429 403.843 96 405.878 96 408V472C96 474.122 96.8429 476.157 98.3431 477.657C99.8434 479.157 101.878 480 104 480H440C442.122 480 444.157 479.157 445.657 477.657C447.157 476.157 448 474.122 448 472V152C448 149.878 447.157 147.843 445.657 146.343C444.157 144.843 442.122 144 440 144Z" fill="#FF0000"/>
<path d="M332.626 256H76.6265C72.2082 256 68.6265 259.582 68.6265 264V408C68.6265 412.418 72.2082 416 76.6265 416H332.626C337.045 416 340.626 412.418 340.626 408V264C340.626 259.582 337.045 256 332.626 256Z" fill="#8C0303"/>
<path d="M445.68 146.32L333.68 34.3199C332.561 33.1917 331.132 32.4222 329.574 32.1097C328.016 31.7971 326.4 31.9556 324.932 32.5649C323.465 33.1743 322.212 34.2068 321.333 35.531C320.455 36.8551 319.991 38.4109 320 39.9999V152C320 154.122 320.843 156.156 322.343 157.657C323.844 159.157 325.878 160 328 160H440C441.589 160.009 443.145 159.545 444.469 158.667C445.793 157.788 446.826 156.535 447.435 155.068C448.044 153.6 448.203 151.984 447.89 150.426C447.578 148.868 446.808 147.439 445.68 146.32Z" fill="#D4D4D4"/>
<path d="M120 368V304H141.28C146.743 303.637 152.151 305.288 156.48 308.64C158.665 310.541 160.396 312.907 161.545 315.566C162.694 318.224 163.233 321.106 163.12 324C163.072 327.74 161.992 331.394 160 334.56C158.129 337.68 155.333 340.141 152 341.6C149.108 342.888 145.965 343.516 142.8 343.44H133.2V368H120ZM133.52 331.84H141.04C143.409 331.965 145.734 331.161 147.52 329.6C148.311 328.806 148.926 327.854 149.326 326.807C149.726 325.759 149.901 324.639 149.84 323.52C149.84 318.613 146.907 316.16 141.04 316.16H133.52V331.84ZM175.6 368V304H199.6C205.616 303.788 211.512 305.715 216.24 309.44C220.156 312.626 223.263 316.693 225.307 321.309C227.351 325.925 228.274 330.959 228 336C228.069 341.869 226.695 347.666 224 352.88C221.477 357.756 217.584 361.788 212.8 364.48C207.272 367.134 201.162 368.345 195.04 368H175.6ZM189.12 355.84H197.76C200.833 355.952 203.869 355.144 206.48 353.52C209.248 351.442 211.437 348.689 212.838 345.523C214.238 342.358 214.804 338.886 214.48 335.44C214.752 332.201 214.198 328.946 212.869 325.979C211.54 323.013 209.479 320.432 206.88 318.48C204.304 316.844 201.289 316.034 198.24 316.16H189.12V355.84ZM241.92 368V304H278.56V316.16H255.44V329.2H276.64V341.36H255.44V368H241.92Z" fill="white"/>
</svg>
