<svg width="30" height="30" viewBox="0 0 30 30" fill="none" xmlns="http://www.w3.org/2000/svg">
<path d="M25.7812 8.4375H19.6875V2.34375C19.6875 2.21943 19.6381 2.1002 19.5502 2.01229C19.4623 1.92439 19.3431 1.875 19.2188 1.875H6.09375C5.96941 1.875 5.8502 1.92439 5.76229 2.01229C5.67439 2.1002 5.625 2.21943 5.625 2.34375V15.4688C5.625 15.5931 5.67439 15.7123 5.76229 15.8002C5.8502 15.8881 5.96941 15.9375 6.09375 15.9375H18.75V23.4375H6.09375C5.96941 23.4375 5.8502 23.4869 5.76229 23.5748C5.67439 23.6627 5.625 23.7819 5.625 23.9062V27.6562C5.625 27.7806 5.67439 27.8998 5.76229 27.9877C5.8502 28.0756 5.96941 28.125 6.09375 28.125H25.7812C25.9056 28.125 26.0248 28.0756 26.1127 27.9877C26.2006 27.8998 26.25 27.7806 26.25 27.6562V8.90625C26.25 8.78191 26.2006 8.66268 26.1127 8.57479C26.0248 8.48689 25.9056 8.4375 25.7812 8.4375Z" fill="#FF0000"/>
<path d="M19.4898 15H4.48984C4.23095 15 4.02109 15.2099 4.02109 15.4688V23.9062C4.02109 24.1651 4.23095 24.375 4.48984 24.375H19.4898C19.7487 24.375 19.9586 24.1651 19.9586 23.9062V15.4688C19.9586 15.2099 19.7487 15 19.4898 15Z" fill="#8C0303"/>
<path d="M26.1141 8.57342L19.5516 2.01092C19.486 1.94481 19.4023 1.89972 19.311 1.88141C19.2197 1.8631 19.125 1.87238 19.039 1.90808C18.953 1.94379 18.8796 2.00429 18.8281 2.08188C18.7767 2.15946 18.7495 2.25062 18.75 2.34373V8.90624C18.75 9.03057 18.7994 9.14975 18.8873 9.2377C18.9752 9.32559 19.0944 9.37499 19.2188 9.37499H25.7813C25.8744 9.37551 25.9655 9.34833 26.0431 9.29688C26.1207 9.24538 26.1812 9.17196 26.2169 9.086C26.2526 8.99999 26.2619 8.9053 26.2436 8.81401C26.2253 8.72272 26.1802 8.63899 26.1141 8.57342Z" fill="#D4D4D4"/>
<path d="M7.03125 21.5625V17.8125H8.27812C8.59822 17.7912 8.9151 17.888 9.16875 18.0844C9.29678 18.1958 9.3982 18.3344 9.46553 18.4902C9.53285 18.6459 9.56443 18.8148 9.55781 18.9844C9.555 19.2035 9.49172 19.4176 9.375 19.6031C9.26537 19.7859 9.10154 19.9301 8.90625 20.0156C8.7368 20.0911 8.55264 20.1279 8.36719 20.1234H7.80469V21.5625H7.03125ZM7.82344 19.4437H8.26406C8.40287 19.4511 8.5391 19.404 8.64375 19.3125C8.6901 19.266 8.72613 19.2102 8.74957 19.1488C8.77301 19.0874 8.78326 19.0218 8.77969 18.9562C8.77969 18.6687 8.60783 18.525 8.26406 18.525H7.82344V19.4437ZM10.2891 21.5625V17.8125H11.6953C12.0478 17.8001 12.3933 17.913 12.6703 18.1312C12.8998 18.3179 13.0818 18.5562 13.2016 18.8267C13.3213 19.0972 13.3754 19.3921 13.3594 19.6875C13.3634 20.0314 13.2829 20.371 13.125 20.6766C12.9772 20.9623 12.7491 21.1985 12.4688 21.3562C12.1448 21.5117 11.7868 21.5827 11.4281 21.5625H10.2891ZM11.0812 20.85H11.5875C11.7676 20.8566 11.9454 20.8092 12.0984 20.7141C12.2606 20.5923 12.3889 20.431 12.471 20.2455C12.553 20.06 12.5862 19.8566 12.5672 19.6547C12.5831 19.4649 12.5507 19.2742 12.4728 19.1003C12.3949 18.9265 12.2742 18.7753 12.1219 18.6609C11.9709 18.5651 11.7943 18.5176 11.6156 18.525H11.0812V20.85ZM14.175 21.5625V17.8125H16.3219V18.525H14.9672V19.2891H16.2094V20.0016H14.9672V21.5625H14.175Z" fill="white"/>
</svg>
