<?xml version="1.0" encoding="UTF-8" standalone="no"?>
<!DOCTYPE svg PUBLIC "-//W3C//DTD SVG 1.1//EN" "http://www.w3.org/Graphics/SVG/1.1/DTD/svg11.dtd">
<svg width="100%" height="100%" viewBox="0 0 512 512" version="1.1" xmlns="http://www.w3.org/2000/svg" xmlns:xlink="http://www.w3.org/1999/xlink" xml:space="preserve" xmlns:serif="http://www.serif.com/" style="fill-rule:evenodd;clip-rule:evenodd;stroke-linejoin:round;stroke-miterlimit:2;">
    <g>
        <path d="M127.741,209L96,209C92.014,209 88.191,210.587 85.376,213.41C82.561,216.233 80.987,220.061 81,224.048L81.221,337.993C81.221,346.277 87.937,352.993 96.221,352.993C104.505,352.993 111.221,346.277 111.221,337.993L111.221,303.396C117.354,303.365 123.906,303.338 127.741,303.338C154.097,303.338 175.54,282.178 175.54,256.169C175.54,230.16 154.097,209 127.741,209ZM127.741,273.338C123.872,273.338 117.296,273.365 111.139,273.397C111.107,267.011 111.079,260.134 111.079,256.169C111.079,252.776 111.062,245.675 111.044,239L127.74,239C137.388,239 145.539,246.862 145.539,256.169C145.539,265.476 137.389,273.338 127.741,273.338Z" style="fill:white;fill-rule:nonzero;"/>
        <path d="M255.33,209L224,209C220.017,209 216.197,210.584 213.383,213.403C210.569,216.222 208.992,220.045 209,224.028C209,224.029 209.223,334.274 209.224,334.674C209.239,338.653 210.833,342.463 213.657,345.266C216.468,348.056 220.266,349.62 224.224,349.62L224.281,349.62C225.228,349.616 247.575,349.531 256.509,349.375C290.403,348.783 315.003,319.316 315.003,279.31C315.002,237.256 291.022,209 255.33,209ZM255.985,319.38C252.1,319.448 245.416,319.503 239.174,319.543C239.132,306.514 239.05,252.54 239.027,239L255.33,239C282.863,239 285.002,269.854 285.002,279.311C285.002,299.003 276.03,319.03 255.985,319.38Z" style="fill:white;fill-rule:nonzero;"/>
        <path d="M413.863,237.842C422.147,237.842 428.863,231.126 428.863,222.842C428.863,214.558 422.147,207.842 413.863,207.842L368,207.842C359.716,207.842 353,214.558 353,222.842L353,336C353,344.284 359.716,351 368,351C376.284,351 383,344.284 383,336L383,293.35L410.22,293.35C418.504,293.35 425.22,286.634 425.22,278.35C425.22,270.066 418.504,263.35 410.22,263.35L383,263.35L383,237.842L413.863,237.842Z" style="fill:white;fill-rule:nonzero;"/>
        <path d="M458,145L447,145L447,140.721C447,121.439 439.694,103.114 426.428,89.12L364.123,23.399C350.025,8.529 330.187,0 309.695,0L110,0C85.187,0 65,20.187 65,45L65,145L54,145C29.187,145 9,165.187 9,190L9,370C9,394.813 29.187,415 54,415L65,415L65,467C65,491.813 85.187,512 110,512L402,512C426.813,512 447,491.813 447,467L447,415L458,415C482.813,415 503,394.813 503,370L503,190C503,165.187 482.813,145 458,145ZM95,45C95,36.729 101.729,30 110,30L309.695,30C321.99,30 333.893,35.117 342.352,44.04L404.657,109.761C412.617,118.157 417,129.152 417,140.721L417,145L95,145L95,45ZM417,467C417,475.271 410.271,482 402,482L110,482C101.729,482 95,475.271 95,467L95,415L417,415L417,467ZM473,370C473,378.271 466.271,385 458,385L54,385C45.729,385 39,378.271 39,370L39,190C39,181.729 45.729,175 54,175L458,175C466.271,175 473,181.729 473,190L473,370Z" style="fill:white;fill-rule:nonzero;"/>
    </g>
</svg>
