<?xml version="1.0" encoding="utf-8"?>
<!-- Generator: Adobe Illustrator 24.0.0, SVG Export Plug-In . SVG Version: 6.00 Build 0)  -->
<svg version="1.1" id="Capa_1" xmlns="http://www.w3.org/2000/svg" xmlns:xlink="http://www.w3.org/1999/xlink" x="0px" y="0px"
	 viewBox="0 0 512 512" style="enable-background:new 0 0 512 512;" xml:space="preserve">
<style type="text/css">
	.st0{fill:#020000;}
</style>
<g>
	<circle class="st0" cx="136" cy="107" r="15"/>
	<circle class="st0" cx="196" cy="167" r="15"/>
	<path class="st0" d="M146.6,177.6l60-60c5.9-5.9,5.9-15.4,0-21.2c-5.9-5.9-15.4-5.9-21.2,0l-60,60c-5.9,5.9-5.9,15.4,0,21.2
		C131.3,183.5,140.7,183.5,146.6,177.6z"/>
	<path class="st0" d="M166,422h180c8.3,0,15-6.7,15-15v-30c0-8.3-6.7-15-15-15s-15,6.7-15,15v15H181v-15c0-8.3-6.7-15-15-15
		s-15,6.7-15,15v30C151,415.3,157.7,422,166,422z"/>
	<path class="st0" d="M497,182c8.3,0,15-6.7,15-15v-60c0-8.3-6.7-15-15-15H376c-8.3,0-15,6.7-15,15v60c0,8.3,6.7,15,15,15h45v30h-90
		V107c0-8.3-6.7-15-15-15h-45V45c0-4-1.6-7.8-4.4-10.6l-30-30c-5.9-5.9-15.4-5.9-21.2,0L196,23.8L176.6,4.4
		c-5.9-5.9-15.4-5.9-21.2,0L136,23.8L116.6,4.4c-5.9-5.9-15.4-5.9-21.2,0l-30,30C62.6,37.2,61,41,61,45v47H15c-8.3,0-15,6.7-15,15
		v390c0,8.3,6.7,15,15,15h482c8.3,0,15-6.7,15-15c0-17.3,0-254.8,0-270c0-8.3-6.7-15-15-15h-46v-30H497z M91,51.2l15-15l19.4,19.4
		c5.9,5.9,15.4,5.9,21.2,0L166,36.2l19.4,19.4c5.9,5.9,15.4,5.9,21.2,0L226,36.2l15,15V212H91V51.2z M482,482H30V302h452V482z
		 M482,272H30V122h31v105c0,8.3,6.7,15,15,15h180c8.3,0,15-6.7,15-15V122h30v105c0,8.3,6.7,15,15,15h166V272z M391,122h91v30h-91
		V122z"/>
</g>
</svg>
