<svg xmlns="http://www.w3.org/2000/svg" width="16.088" height="16.088" viewBox="0 0 16.088 16.088">
  <path id="check-mark_1_" data-name="check-mark (1)" d="M11.6,5.492a.628.628,0,0,1,0,.889L7.384,10.6a.629.629,0,0,1-.889,0L4.488,8.59A.628.628,0,1,1,5.377,7.7L6.939,9.264l3.772-3.772a.629.629,0,0,1,.889,0Zm4.488,2.552A8.044,8.044,0,1,1,8.044,0,8.039,8.039,0,0,1,16.088,8.044Zm-1.257,0a6.787,6.787,0,1,0-6.787,6.787A6.783,6.783,0,0,0,14.831,8.044Zm0,0" transform="translate(0 0)" fill="#fff"/>
</svg>
