<svg width="96" height="96" viewBox="0 0 96 96" fill="none" xmlns="http://www.w3.org/2000/svg">
<path fill-rule="evenodd" clip-rule="evenodd" d="M23.6516 17.5006C25.4484 15.7618 27.8684 14.7988 30.3752 14.7988C32.882 14.7988 35.302 15.7618 37.0988 17.5006C38.8983 19.2421 39.9251 21.6219 39.9251 24.1213C39.9251 26.6207 38.8983 29.0005 37.0988 30.742C35.302 32.4809 32.882 33.4438 30.3752 33.4438C27.8684 33.4438 25.4484 32.4809 23.6516 30.742C21.852 29.0005 20.8253 26.6207 20.8253 24.1213C20.8253 21.6219 21.852 19.2421 23.6516 17.5006ZM30.3752 19.7988C29.1425 19.7988 27.9762 20.2735 27.1287 21.0936C26.284 21.911 25.8253 23.0019 25.8253 24.1213C25.8253 25.2408 26.284 26.3316 27.1287 27.149C27.9762 27.9691 29.1425 28.4438 30.3752 28.4438C31.6079 28.4438 32.7742 27.9691 33.6217 27.149C34.4663 26.3316 34.9251 25.2408 34.9251 24.1213C34.9251 23.0019 34.4663 21.911 33.6217 21.0936C32.7742 20.2735 31.6079 19.7988 30.3752 19.7988ZM58.9011 17.5006C60.6979 15.7618 63.1179 14.7988 65.6247 14.7988C68.1315 14.7988 70.5515 15.7618 72.3483 17.5006C74.1478 19.2421 75.1746 21.6219 75.1746 24.1213C75.1746 26.6207 74.1478 29.0005 72.3483 30.742C70.5515 32.4809 68.1315 33.4438 65.6247 33.4438C63.1179 33.4438 60.6979 32.4809 58.9011 30.742C57.1015 29.0005 56.0748 26.6207 56.0748 24.1213C56.0748 21.6219 57.1015 19.2421 58.9011 17.5006ZM65.6247 19.7988C64.392 19.7988 63.2257 20.2735 62.3782 21.0936C61.5335 21.911 61.0748 23.0019 61.0748 24.1213C61.0748 25.2408 61.5335 26.3316 62.3782 27.149C63.2257 27.9691 64.392 28.4438 65.6247 28.4438C66.8574 28.4438 68.0237 27.9691 68.8712 27.149C69.7158 26.3316 70.1746 25.2408 70.1746 24.1213C70.1746 23.0019 69.7158 21.911 68.8712 21.0936C68.0237 20.2735 66.8574 19.7988 65.6247 19.7988ZM23.3253 43.6775C22.0926 43.6775 20.9263 44.1522 20.0788 44.9723C19.2341 45.7897 18.7754 46.8806 18.7754 48V51.4112C18.7754 52.792 17.6561 53.9112 16.2754 53.9112C14.8947 53.9112 13.7754 52.792 13.7754 51.4112V48C13.7754 45.5006 14.8021 43.1208 16.6017 41.3793C18.3985 39.6405 20.8185 38.6775 23.3253 38.6775H30.3752C31.7559 38.6775 32.8752 39.7968 32.8752 41.1775C32.8752 42.5582 31.7559 43.6775 30.3752 43.6775H23.3253ZM63.1247 41.1775C63.1247 39.7968 64.244 38.6775 65.6247 38.6775H72.6746C75.1814 38.6775 77.6014 39.6405 79.3982 41.3793C81.1977 43.1208 82.2245 45.5006 82.2245 48V51.4112C82.2245 52.792 81.1052 53.9112 79.7245 53.9112C78.3438 53.9112 77.2245 52.792 77.2245 51.4112V48C77.2245 46.8806 76.7657 45.7897 75.9211 44.9723C75.0736 44.1522 73.9073 43.6775 72.6746 43.6775H65.6247C64.244 43.6775 63.1247 42.5582 63.1247 41.1775ZM41.2764 44.7905C43.0731 43.0517 45.4931 42.0888 47.9999 42.0888C50.5068 42.0888 52.9267 43.0517 54.7235 44.7905C56.5231 46.532 57.5498 48.9118 57.5498 51.4112C57.5498 53.9107 56.5231 56.2905 54.7235 58.032C52.9267 59.7708 50.5068 60.7337 47.9999 60.7337C45.4931 60.7337 43.0731 59.7708 41.2764 58.032C39.4768 56.2905 38.45 53.9107 38.45 51.4112C38.45 48.9118 39.4768 46.532 41.2764 44.7905ZM47.9999 47.0888C46.7673 47.0888 45.6009 47.5634 44.7535 48.3835C43.9088 49.2009 43.45 50.2918 43.45 51.4112C43.45 52.5307 43.9088 53.6215 44.7535 54.439C45.6009 55.2591 46.7673 55.7337 47.9999 55.7337C49.2326 55.7337 50.399 55.2591 51.2464 54.439C52.0911 53.6215 52.5498 52.5307 52.5498 51.4112C52.5498 50.2918 52.0911 49.2009 51.2464 48.3835C50.399 47.5634 49.2326 47.0888 47.9999 47.0888ZM40.95 70.9674C39.7174 70.9674 38.551 71.4421 37.7036 72.2622C36.8589 73.0796 36.4001 74.1705 36.4001 75.2899V78.7012C36.4001 80.0819 35.2808 81.2012 33.9001 81.2012C32.5194 81.2012 31.4001 80.0819 31.4001 78.7012V75.2899C31.4001 72.7905 32.4269 70.4107 34.2265 68.6692C36.0232 66.9304 38.4432 65.9674 40.95 65.9674H55.0498C57.5567 65.9674 59.9766 66.9304 61.7734 68.6692C63.573 70.4107 64.5997 72.7905 64.5997 75.2899V78.7012C64.5997 80.0819 63.4804 81.2012 62.0997 81.2012C60.719 81.2012 59.5997 80.0819 59.5997 78.7012V75.2899C59.5997 74.1705 59.141 73.0796 58.2963 72.2622C57.4489 71.4421 56.2825 70.9674 55.0498 70.9674H40.95Z" fill="white"/>
<path fill-rule="evenodd" clip-rule="evenodd" d="M20.7891 6.78894C18.8871 6.78894 17.0785 7.16711 15.4306 7.85048C14.4102 8.27359 13.2401 7.78946 12.817 6.76914C12.3939 5.74882 12.878 4.57869 13.8984 4.15558C16.0235 3.27433 18.3521 2.78894 20.7891 2.78894H27.5918C28.6964 2.78894 29.5918 3.68437 29.5918 4.78894C29.5918 5.89351 28.6964 6.78894 27.5918 6.78894H20.7891ZM39.1974 4.78894C39.1974 3.68437 40.0928 2.78894 41.1974 2.78894H54.8029C55.9075 2.78894 56.8029 3.68437 56.8029 4.78894C56.8029 5.89351 55.9075 6.78894 54.8029 6.78894H41.1974C40.0928 6.78894 39.1974 5.89351 39.1974 4.78894ZM66.4084 4.78894C66.4084 3.68437 67.3038 2.78894 68.4084 2.78894H75.2112C77.6481 2.78894 79.9768 3.27433 82.1019 4.15558C83.1222 4.57869 83.6063 5.74882 83.1832 6.76914C82.7601 7.78946 81.59 8.27359 80.5697 7.85048C78.9217 7.16711 77.1131 6.78894 75.2112 6.78894H68.4084C67.3038 6.78894 66.4084 5.89351 66.4084 4.78894ZM6.76926 12.8169C7.78958 13.24 8.27371 14.4101 7.8506 15.4304C7.16723 17.0784 6.78906 18.887 6.78906 20.7889V27.5917C6.78906 28.6963 5.89363 29.5917 4.78906 29.5917C3.68449 29.5917 2.78906 28.6963 2.78906 27.5917V20.7889C2.78906 18.352 3.27445 16.0233 4.1557 13.8982C4.57881 12.8779 5.74894 12.3938 6.76926 12.8169ZM89.231 12.8169C90.2513 12.3938 91.4214 12.8779 91.8445 13.8982C92.7258 16.0233 93.2112 18.352 93.2112 20.7889V27.5917C93.2112 28.6963 92.3158 29.5917 91.2112 29.5917C90.1066 29.5917 89.2112 28.6963 89.2112 27.5917V20.7889C89.2112 18.887 88.833 17.0784 88.1496 15.4304C87.7265 14.4101 88.2107 13.24 89.231 12.8169ZM4.78906 39.1972C5.89363 39.1972 6.78906 40.0927 6.78906 41.1972V54.8028C6.78906 55.9073 5.89363 56.8028 4.78906 56.8028C3.68449 56.8028 2.78906 55.9073 2.78906 54.8028V41.1972C2.78906 40.0927 3.68449 39.1972 4.78906 39.1972ZM91.2112 39.1972C92.3158 39.1972 93.2112 40.0927 93.2112 41.1972V54.8028C93.2112 55.9073 92.3158 56.8028 91.2112 56.8028C90.1066 56.8028 89.2112 55.9073 89.2112 54.8028V41.1972C89.2112 40.0927 90.1066 39.1972 91.2112 39.1972ZM4.78906 66.4083C5.89363 66.4083 6.78906 67.3037 6.78906 68.4083V75.2111C6.78906 77.113 7.16723 78.9216 7.8506 80.5696C8.27371 81.5899 7.78958 82.76 6.76926 83.1831C5.74894 83.6062 4.57881 83.1221 4.1557 82.1018C3.27445 79.9767 2.78906 77.648 2.78906 75.2111V68.4083C2.78906 67.3037 3.68449 66.4083 4.78906 66.4083ZM91.2112 66.4083C92.3158 66.4083 93.2112 67.3037 93.2112 68.4083V75.2111C93.2112 77.648 92.7258 79.9767 91.8445 82.1018C91.4214 83.1221 90.2513 83.6062 89.231 83.1831C88.2107 82.76 87.7265 81.5899 88.1496 80.5696C88.833 78.9216 89.2112 77.113 89.2112 75.2111V68.4083C89.2112 67.3037 90.1066 66.4083 91.2112 66.4083ZM12.817 89.2309C13.2401 88.2105 14.4102 87.7264 15.4306 88.1495C17.0785 88.8329 18.8871 89.2111 20.7891 89.2111H27.5918C28.6964 89.2111 29.5918 90.1065 29.5918 91.2111C29.5918 92.3156 28.6964 93.2111 27.5918 93.2111H20.7891C18.3521 93.2111 16.0235 92.7257 13.8983 91.8444C12.878 91.4213 12.3939 90.2512 12.817 89.2309ZM83.1832 89.2309C83.6063 90.2512 83.1222 91.4213 82.1019 91.8444C79.9768 92.7257 77.6481 93.2111 75.2112 93.2111H68.4084C67.3038 93.2111 66.4084 92.3156 66.4084 91.2111C66.4084 90.1065 67.3038 89.2111 68.4084 89.2111H75.2112C77.1132 89.2111 78.9217 88.8329 80.5697 88.1495C81.59 87.7264 82.7601 88.2105 83.1832 89.2309ZM39.1974 91.2111C39.1974 90.1065 40.0928 89.2111 41.1974 89.2111H54.8029C55.9075 89.2111 56.8029 90.1065 56.8029 91.2111C56.8029 92.3156 55.9075 93.2111 54.8029 93.2111H41.1974C40.0928 93.2111 39.1974 92.3156 39.1974 91.2111Z" fill="white"/>
</svg>
