<svg xmlns="http://www.w3.org/2000/svg" xmlns:xlink="http://www.w3.org/1999/xlink" width="442" height="442" viewBox="0 0 442 442"><defs><clipPath id="b"><rect width="442" height="442"/></clipPath></defs><g id="a" clip-path="url(#b)"><g transform="translate(20.001 19.599)"><path d="M217.42,120.716c38.413,6.074,49.247,32.832,49.247,47.442a16.416,16.416,0,0,1-32.832,0c0-2.955-2.955-16.416-32.832-16.416s-32.832,13.461-32.832,16.416S170.8,184.574,201,184.574c51.874,0,65.663,32.832,65.663,49.247s-10.834,41.86-49.247,47.934v17.729a16.416,16.416,0,0,1-32.832,0V281.755a58.44,58.44,0,0,1-39.726-21.669,45.964,45.964,0,0,1-9.521-26.265,16.416,16.416,0,0,1,32.832,0c0,2.3,2.627,16.416,32.832,16.416h0c32.832,0,32.832-16.416,32.832-16.416S231.21,217.405,201,217.405c-51.874,0-65.663-32.832-65.663-49.247s10.834-41.368,49.247-47.442V102.495a16.416,16.416,0,0,1,32.832,0Zm65.663-1.806a16.416,16.416,0,0,0,11.655-4.761l54.008-54.172v26.1a16.416,16.416,0,1,0,32.832,0V20.416A16.669,16.669,0,0,0,365.163,4H299.5a16.416,16.416,0,1,0,0,32.832h26.1L271.428,90.84a16.416,16.416,0,0,0,11.655,28.071ZM394.711,165.2a16.68,16.68,0,1,0-32.832,5.91A164.158,164.158,0,1,1,201,36.832a149.054,149.054,0,0,1,14.938,0,16.416,16.416,0,0,0,17.893-14.118A16.416,16.416,0,0,0,218.9,4.821H201a196.99,196.99,0,1,0,193.706,161.2Z" transform="translate(0)"/></g></g></svg>