<svg width="22" height="21" viewBox="0 0 22 21" fill="none" xmlns="http://www.w3.org/2000/svg">
<path d="M11.7162 0.445108L14.4972 6.07941C14.6134 6.31488 14.838 6.47881 15.0983 6.51658L21.3158 7.41972C21.6169 7.46344 21.8672 7.67407 21.9606 7.96318C22.055 8.2523 21.9765 8.57023 21.7589 8.78287L17.2593 13.1683C17.0715 13.3521 16.9851 13.6164 17.0298 13.8747L18.0919 20.0676C18.1435 20.3676 18.0203 20.6707 17.7739 20.8495C17.5285 21.0283 17.2027 21.0512 16.9334 20.9101L11.3716 17.9861C11.1391 17.8639 10.8609 17.8639 10.6284 17.9861L5.0666 20.9101C4.79735 21.0512 4.47148 21.0283 4.22606 20.8495C3.97966 20.6707 3.85647 20.3676 3.90812 20.0676L4.97023 13.8747C5.01494 13.6164 4.9285 13.3521 4.74072 13.1683L0.24106 8.78287C0.0234734 8.57025 -0.0550259 8.25233 0.03937 7.96318C0.132764 7.67407 0.383146 7.46344 0.684192 7.41972L6.90171 6.51658C7.16201 6.47883 7.38655 6.31489 7.50281 6.07941L10.2838 0.445108C10.419 0.17288 10.6962 0 11.0002 0C11.3042 0 11.5814 0.172877 11.7165 0.445108H11.7162Z" fill="#FFAC33"/>
</svg>
