<svg width="17" height="20" viewBox="0 0 17 20" fill="none" xmlns="http://www.w3.org/2000/svg">
<path d="M16.1607 4.21294H12.3758L11.4468 1.34656C11.3947 1.24225 11.3145 1.15454 11.2153 1.09332C11.1161 1.03209 11.0018 0.999772 10.8852 1H6.89979C6.7832 0.999772 6.66887 1.03209 6.56965 1.09332C6.47044 1.15454 6.39028 1.24225 6.3382 1.34656L5.40919 4.21294H1.6263C1.4602 4.21294 1.3009 4.27893 1.18344 4.39638C1.06599 4.51384 1 4.67314 1 4.83925C1 5.00536 1.06599 5.16466 1.18344 5.28211C1.3009 5.39957 1.4602 5.46555 1.6263 5.46555H2.51775V16.4948C2.51775 17.1592 2.78169 17.7964 3.25151 18.2662C3.72133 18.7361 4.35854 19 5.02296 19H12.7641C13.4285 19 14.0657 18.7361 14.5355 18.2662C15.0054 17.7964 15.2693 17.1592 15.2693 16.4948V5.46555H16.1607C16.3269 5.46555 16.4862 5.39957 16.6036 5.28211C16.7211 5.16466 16.7871 5.00536 16.7871 4.83925C16.7871 4.67314 16.7211 4.51384 16.6036 4.39638C16.4862 4.27893 16.3269 4.21294 16.1607 4.21294ZM7.2881 2.25261H10.499L10.9812 4.21294H6.80585L7.2881 2.25261ZM14.0167 16.4948C14.0167 16.827 13.8847 17.1456 13.6498 17.3805C13.4149 17.6154 13.0963 17.7474 12.7641 17.7474H5.02296C4.69075 17.7474 4.37215 17.6154 4.13724 17.3805C3.90233 17.1456 3.77035 16.827 3.77035 16.4948V5.46555H14.0167V16.4948Z" fill="#707478" stroke="#707478" stroke-width="0.2"/>
<path d="M10.5595 15.5797C10.7256 15.5797 10.8849 15.5318 11.0024 15.4466C11.1198 15.3614 11.1858 15.2459 11.1858 15.1254V8.11401C11.1858 7.99352 11.1198 7.87797 11.0024 7.79277C10.8849 7.70757 10.7256 7.65971 10.5595 7.65971C10.3934 7.65971 10.2341 7.70757 10.1166 7.79277C9.99918 7.87797 9.9332 7.99352 9.9332 8.11401V15.1254C9.9332 15.1851 9.9494 15.2441 9.98087 15.2993C10.0123 15.3544 10.0585 15.4045 10.1166 15.4466C10.1748 15.4888 10.2438 15.5223 10.3198 15.5451C10.3958 15.568 10.4773 15.5797 10.5595 15.5797Z" fill="#707478" stroke="#707478" stroke-width="0.2"/>
<path d="M7.22755 15.5797C7.39366 15.5797 7.55296 15.5318 7.67042 15.4466C7.78787 15.3614 7.85386 15.2459 7.85386 15.1254V8.11401C7.85386 7.99352 7.78787 7.87797 7.67042 7.79277C7.55296 7.70757 7.39366 7.65971 7.22755 7.65971C7.06145 7.65971 6.90215 7.70757 6.78469 7.79277C6.66724 7.87797 6.60125 7.99352 6.60125 8.11401V15.1254C6.60125 15.1851 6.61745 15.2441 6.64892 15.2993C6.6804 15.3544 6.72653 15.4045 6.78469 15.4466C6.84285 15.4888 6.91189 15.5223 6.98788 15.5451C7.06387 15.568 7.14531 15.5797 7.22755 15.5797Z" fill="#707478" stroke="#707478" stroke-width="0.2"/>
</svg>
