<svg width="12" height="12" viewBox="0 0 12 12" fill="none" xmlns="http://www.w3.org/2000/svg">
<path d="M0.324324 11.6959C0.527027 11.8986 0.790541 12 1.03378 12C1.27703 12 1.56081 11.8986 1.74324 11.6959L6 7.43919L10.2568 11.6959C10.4595 11.8986 10.723 12 10.9662 12C11.2095 12 11.4932 11.8986 11.6757 11.6959C12.0811 11.2905 12.0811 10.6622 11.6757 10.2568L7.41892 6L11.6757 1.74324C12.0811 1.33784 12.0811 0.709459 11.6757 0.304054C11.2703 -0.101351 10.6419 -0.101351 10.2365 0.304054L5.97973 4.56081L1.74324 0.344595C1.33784 -0.0608107 0.709459 -0.0608107 0.304054 0.344595C-0.101351 0.75 -0.101351 1.37838 0.304054 1.78378L4.56081 6.04054L0.324324 10.277C-0.081081 10.6622 -0.081081 11.3108 0.324324 11.6959Z" fill="#707478"/>
</svg>
