<svg width="18" height="20" viewBox="0 0 18 20" fill="none" xmlns="http://www.w3.org/2000/svg">
<path d="M15.7479 6.20021C15.5205 5.85908 15.0467 5.78327 14.7245 6.01069C14.3834 6.23811 14.2886 6.73086 14.535 7.07199C15.4068 8.30386 15.8616 9.85791 15.71 11.5067C15.4257 14.6338 12.9051 17.1544 9.77808 17.4576C5.64658 17.8556 2.15944 14.4253 2.51953 10.2938C2.80381 6.93933 5.62763 4.32398 8.9821 4.24817V5.46109C8.9821 5.89698 9.47485 6.1623 9.83494 5.93488L12.962 3.98284C13.3221 3.75542 13.3221 3.24372 12.962 3.03525L9.83494 1.08321C9.4559 0.855791 8.9821 1.12112 8.9821 1.55701V2.76993C4.92641 2.82678 1.55298 5.82117 1.06024 9.87686C0.453778 14.9181 4.50947 19.2012 9.4938 18.9927C13.6253 18.8032 17.0177 15.4487 17.2262 11.3172C17.3209 9.40307 16.7524 7.64055 15.7479 6.20021Z" fill="white" stroke="white"/>
</svg>
