<svg xmlns="http://www.w3.org/2000/svg" width="128.001" height="116.119" viewBox="0 0 128.001 116.119">
  <g id="Group_1" data-name="Group 1" transform="translate(0 0)">
    <path id="Path" d="M103.373,32.227A40.048,40.048,0,0,0,24.827,32.2a28.034,28.034,0,0,0,3.229,55.883H48.079a4,4,0,0,0,0-8.01H28.056a20.024,20.024,0,1,1,.236-40.048,4,4,0,0,0,3.98-3.563,32.038,32.038,0,0,1,63.651,0,4.245,4.245,0,0,0,4.217,3.563,20.024,20.024,0,1,1,0,40.048H80.117a4,4,0,0,0,0,8.01h20.024a28.033,28.033,0,0,0,3.231-55.858Z" transform="translate(0 0)"/>
    <path id="Path-2" data-name="Path" d="M35.2,23.827a4,4,0,0,0,5.762-5.563c-.032-.034-.065-.066-.1-.1L23.878,1.177a4.005,4.005,0,0,0-5.664-.008l-.007.008L1.223,18.165a4,4,0,1,0,5.564,5.761l.1-.1L17.038,13.671v50.4a4,4,0,1,0,8.009,0v-50.4Z" transform="translate(43.056 48.039)"/>
  </g>
</svg>
