<?xml version="1.0" encoding="UTF-8"?>
<svg width="86px" height="112px" viewBox="0 0 86 112" version="1.1" xmlns="http://www.w3.org/2000/svg" xmlns:xlink="http://www.w3.org/1999/xlink">
    <!-- Generator: Sketch 63.1 (92452) - https://sketch.com -->
    <title>icon-gif</title>
    <desc>Created with Sketch.</desc>
    <g id="icon-gif" stroke="none" stroke-width="1" fill="none" fill-rule="evenodd">
        <g id="GIF" fill-rule="nonzero">
            <path d="M60.97,0 L2.926,0 C1.31,0 0,1.31 0,3.852 L0,110 C0,110.69 1.31,112 2.926,112 L83.074,112 C84.69,112 86,110.69 86,110 L86,25.956 C86,24.564 85.814,24.116 85.486,23.786 L62.214,0.514 C61.884,0.186 61.436,0 60.97,0 Z" id="Path" fill="#FFC2AC"></path>
            <polygon id="Path" fill="#EAB09B" points="62 0.302 62 24 85.698 24"></polygon>
            <circle id="Oval" fill="#FF8A5C" cx="24.862" cy="28.862" r="9.138"></circle>
            <polygon id="Path" fill="#B94726" points="0 78 22 78 86 78 86 56 66 37 45 60 34.034 49.034"></polygon>
            <path d="M83.074,112 L2.926,112 C1.31,112 0,110.69 0,109.074 L0,78 L86,78 L86,109.074 C86,110.69 84.69,112 83.074,112 Z" id="Path" fill="#682613"></path>
            <path d="M32.1839727,105.392 C33.4906393,105.392 34.7739727,105.214667 36.0339727,104.86 C37.2939727,104.505333 38.5026393,104.010667 39.6599727,103.376 L39.6599727,103.376 L39.6599727,94.584 L32.0439727,94.584 L32.0439727,98.112 L35.1239727,98.112 L35.1239727,101.416 C34.7879727,101.584 34.4006393,101.700667 33.9619727,101.766 C33.523306,101.831333 33.0519727,101.864 32.5479727,101.864 C31.577306,101.864 30.7279727,101.668 29.9999727,101.276 C29.2719727,100.884 28.707306,100.235333 28.3059727,99.33 C27.9046393,98.4246667 27.7039727,97.1973333 27.7039727,95.648 C27.7039727,94.08 27.8999727,92.8433333 28.2919727,91.938 C28.6839727,91.0326667 29.2579727,90.3933333 30.0139727,90.02 C30.7699727,89.6466667 31.6799727,89.46 32.7439727,89.46 C33.7706393,89.46 34.7646393,89.6373333 35.7259727,89.992 C36.687306,90.3466667 37.7279727,90.8133333 38.8479727,91.392 L38.8479727,91.392 L38.8479727,87.276 C37.821306,86.8466667 36.7479727,86.5106667 35.6279727,86.268 C34.5079727,86.0253333 33.3599727,85.904 32.1839727,85.904 C30.3546393,85.904 28.7539727,86.2446667 27.3819727,86.926 C26.0099727,87.6073333 24.9459727,88.6666667 24.1899727,90.104 C23.4339727,91.5413333 23.0559727,93.3986667 23.0559727,95.676 C23.0559727,97.9906667 23.4339727,99.862 24.1899727,101.29 C24.9459727,102.718 26.0099727,103.758667 27.3819727,104.412 C28.7539727,105.065333 30.3546393,105.392 32.1839727,105.392 Z M48.1691819,105 L48.1691819,86.324 L43.6331819,86.324 L43.6331819,105 L48.1691819,105 Z M56.6896123,105 L56.6896123,97.832 L63.7456123,97.832 L63.7456123,94.276 L56.6896123,94.276 L56.6896123,89.824 L64.8656123,89.824 L64.8656123,86.324 L52.1536123,86.324 L52.1536123,105 L56.6896123,105 Z" fill="#FFFFFF"></path>
        </g>
    </g>
</svg>