<svg xmlns="http://www.w3.org/2000/svg" width="24" height="22.286" viewBox="0 0 24 22.286">
  <g id="download_1_" data-name="download (1)" transform="translate(0 0)">
    <path id="Path" d="M19.382,5.958a7.53,7.53,0,0,0-14.727,0A5.18,5.18,0,0,0,5.26,16.286H9.015a.741.741,0,1,0,0-1.481H5.26A3.7,3.7,0,1,1,5.3,7.4a.747.747,0,0,0,.746-.659,6.017,6.017,0,0,1,11.935,0,.793.793,0,0,0,.791.659,3.7,3.7,0,1,1,0,7.4H15.022a.741.741,0,1,0,0,1.481h3.755a5.179,5.179,0,0,0,.606-10.327Z"/>
    <path id="Path-2" data-name="Path" d="M6.452,8.357,4.591,10.275V.756a.734.734,0,1,0-1.468,0v9.519L1.262,8.357A.719.719,0,0,0,.224,8.339.773.773,0,0,0,.206,9.408l.018.019,3.113,3.208a.736.736,0,0,0,.237.163.706.706,0,0,0,.565,0,.733.733,0,0,0,.237-.163L7.49,9.426a.773.773,0,0,0,.018-1.069A.719.719,0,0,0,6.47,8.339Z" transform="translate(8.571 9.429)"/>
  </g>
</svg>
