<svg id="Layer_1" enable-background="new 0 0 512.056 512.056" height="512" viewBox="0 0 512.056 512.056" width="512" xmlns="http://www.w3.org/2000/svg"><path d="m511.884 498.066c.256-1.995.189-314.517.039-315.865-.313-2.751-1.338-5.426-3.082-7.76-1.877-2.515 3.821 2.202-68.81-53.997v-104.439c0-8.836-7.163-16-16-16h-336c-8.837 0-16 7.164-16 16v104.439c-71.591 55.385-66.364 51.197-67.819 52.801-2.449 2.682-3.972 6.148-4.15 10.01-.005.102-.289 313.434.402 316.389 1.748 7.49 8.427 12.361 15.58 12.361 514.232 0 480.805.271 483.887-.499 6.662-1.673 11.147-7.211 11.953-13.44zm-479.852-281.45 159.458 123.387-159.458 123.39zm185.602 143.617 28.606 22.135c5.765 4.461 13.816 4.461 19.582 0l28.606-22.136 154.782 119.773h-386.357zm102.939-20.231c110.038-85.15 72.981-56.477 159.458-123.381v246.772zm149.318-156.001-29.859 23.105v-46.205zm-61.859-151.996v199.863l-152 117.617c-163.107-126.216-126.448-97.85-152-117.618v-199.862zm-336 175.104-29.859-23.101 29.859-23.103z"/><path d="m152.032 104.005h208c8.837 0 16-7.164 16-16s-7.163-16-16-16h-208c-8.837 0-16 7.164-16 16s7.163 16 16 16z"/><path d="m152.032 176.005h208c8.837 0 16-7.164 16-16s-7.163-16-16-16h-208c-8.837 0-16 7.164-16 16s7.163 16 16 16z"/><path d="m152.032 248.005h208c8.837 0 16-7.164 16-16s-7.163-16-16-16h-208c-8.837 0-16 7.164-16 16s7.163 16 16 16z"/></svg>