<?xml version="1.0" encoding="UTF-8"?>
<svg width="86px" height="112px" viewBox="0 0 86 112" version="1.1" xmlns="http://www.w3.org/2000/svg" xmlns:xlink="http://www.w3.org/1999/xlink">
    <!-- Generator: Sketch 63.1 (92452) - https://sketch.com -->
    <title>icon-txt</title>
    <desc>Created with Sketch.</desc>
    <g id="icon-txt" stroke="none" stroke-width="1" fill="none" fill-rule="evenodd">
        <g id="txt" fill-rule="nonzero">
            <path d="M60.97,0 L2.926,0 C1.31,0 0,1.31 0,3.852 L0,110 C0,110.69 1.31,112 2.926,112 L83.074,112 C84.69,112 86,110.69 86,110 L86,25.956 C86,24.564 85.814,24.116 85.486,23.786 L62.214,0.514 C61.884,0.186 61.436,0 60.97,0 Z" id="Path" fill="#676767"></path>
            <polygon id="Path" fill="#979797" points="62 0.302 62 24 85.698 24"></polygon>
            <path d="M83.074,112 L2.926,112 C1.31,112 0,110.69 0,109.074 L0,78 L86,78 L86,109.074 C86,110.69 84.69,112 83.074,112 Z" id="Path" fill="#8B8B8B"></path>
            <path d="M24,26 L12,26 C10.894,26 10,25.104 10,24 C10,22.896 10.894,22 12,22 L24,22 C25.106,22 26,22.896 26,24 C26,25.104 25.106,26 24,26 Z" id="Path" fill="#C8BDB8"></path>
            <path d="M30,36 L12,36 C10.894,36 10,35.104 10,34 C10,32.896 10.894,32 12,32 L30,32 C31.106,32 32,32.896 32,34 C32,35.104 31.106,36 30,36 Z" id="Path" fill="#C8BDB8"></path>
            <path d="M38,36 C37.48,36 36.958,35.78 36.58,35.42 C36.218,35.04 36,34.54 36,34 C36,33.46 36.218,32.96 36.6,32.58 C37.32,31.84 38.68,31.84 39.42,32.58 C39.78,32.96 40,33.48 40,34 C40,34.52 39.78,35.04 39.42,35.42 C39.04,35.78 38.52,36 38,36 Z" id="Path" fill="#C8BDB8"></path>
            <path d="M62,36 L46,36 C44.894,36 44,35.104 44,34 C44,32.896 44.894,32 46,32 L62,32 C63.106,32 64,32.896 64,34 C64,35.104 63.106,36 62,36 Z" id="Path" fill="#C8BDB8"></path>
            <path d="M12,66 C11.48,66 10.958,65.78 10.58,65.42 C10.218,65.04 10,64.52 10,64 C10,63.48 10.218,62.96 10.58,62.58 C11.32,61.84 12.68,61.84 13.42,62.6 C13.78,62.96 14,63.48 14,64 C14,64.52 13.78,65.04 13.42,65.42 C13.04,65.78 12.52,66 12,66 Z" id="Path" fill="#C8BDB8"></path>
            <path d="M36,66 L20,66 C18.894,66 18,65.104 18,64 C18,62.896 18.894,62 20,62 L36,62 C37.106,62 38,62.896 38,64 C38,65.104 37.106,66 36,66 Z" id="Path" fill="#C8BDB8"></path>
            <path d="M74,36 L70,36 C68.894,36 68,35.104 68,34 C68,32.896 68.894,32 70,32 L74,32 C75.106,32 76,32.896 76,34 C76,35.104 75.106,36 74,36 Z" id="Path" fill="#C8BDB8"></path>
            <path d="M56,46 L12,46 C10.894,46 10,45.104 10,44 C10,42.896 10.894,42 12,42 L56,42 C57.106,42 58,42.896 58,44 C58,45.104 57.106,46 56,46 Z" id="Path" fill="#C8BDB8"></path>
            <path d="M74,46 L62,46 C60.894,46 60,45.104 60,44 C60,42.896 60.894,42 62,42 L74,42 C75.106,42 76,42.896 76,44 C76,45.104 75.106,46 74,46 Z" id="Path" fill="#C8BDB8"></path>
            <path d="M20,56 L12,56 C10.894,56 10,55.104 10,54 C10,52.896 10.894,52 12,52 L20,52 C21.106,52 22,52.896 22,54 C22,55.104 21.106,56 20,56 Z" id="Path" fill="#C8BDB8"></path>
            <path d="M48,56 L28,56 C26.894,56 26,55.104 26,54 C26,52.896 26.894,52 28,52 L48,52 C49.106,52 50,52.896 50,54 C50,55.104 49.106,56 48,56 Z" id="Path" fill="#C8BDB8"></path>
            <path d="M74,56 L56,56 C54.894,56 54,55.104 54,54 C54,52.896 54.894,52 56,52 L74,52 C75.106,52 76,52.896 76,54 C76,55.104 75.106,56 74,56 Z" id="Path" fill="#C8BDB8"></path>
            <path d="M29.5117762,105 L29.5117762,89.824 L34.8317762,89.824 L34.8317762,86.324 L19.7397762,86.324 L19.7397762,89.824 L24.9757762,89.824 L24.9757762,105 L29.5117762,105 Z M40.949778,105 L44.531,99.086 L48.565778,105 L54.193778,105 L47.857,95.712 L53.997778,86.324 L48.985778,86.324 L45.501,92.259 L41.453778,86.324 L35.825778,86.324 L42.223,95.703 L36.049778,105 L40.949778,105 Z M64.954222,105 L64.954222,89.824 L70.274222,89.824 L70.274222,86.324 L55.182222,86.324 L55.182222,89.824 L60.418222,89.824 L60.418222,105 L64.954222,105 Z" id="TXT" fill="#FFFFFF"></path>
        </g>
    </g>
</svg>