<svg xmlns="http://www.w3.org/2000/svg" width="13.775" height="12.94" viewBox="0 0 13.775 12.94">
  <g id="New" transform="translate(0 -10)">
    <path id="XMLID_11_" d="M81.068,13.991l1.853-1.853v7.672a.626.626,0,0,0,1.252,0V12.138l1.853,1.853a.626.626,0,0,0,.885-.885L83.99,10.183q-.022-.022-.046-.042l-.021-.016-.028-.021-.027-.016-.026-.015-.028-.013-.028-.013-.027-.01-.031-.011L83.7,10.02l-.032-.008-.032,0-.029,0-.058,0h-.007l-.058,0-.028,0-.032,0-.031.008-.028.007-.03.01-.028.01-.027.012-.029.014-.025.015-.028.017-.026.019-.023.017c-.015.012-.03.026-.044.04l0,0-2.922,2.922a.626.626,0,0,0,.885.886Z" transform="translate(-76.66 0)" fill="#fff"/>
    <path id="XMLID_12_" d="M13.149,160a.626.626,0,0,0-.626.626v4.8H1.252v-4.8a.626.626,0,1,0-1.252,0v5.426a.626.626,0,0,0,.626.626H13.149a.626.626,0,0,0,.626-.626v-5.426A.626.626,0,0,0,13.149,160Z" transform="translate(0 -143.739)" fill="#fff"/>
  </g>
</svg>
