<svg xmlns="http://www.w3.org/2000/svg" xmlns:xlink="http://www.w3.org/1999/xlink" width="22" height="22" viewBox="0 0 22 22">
  <defs>
    <clipPath id="clip-payroll-icon">
      <rect width="22" height="22"/>
    </clipPath>
  </defs>
  <g id="payroll-icon" clip-path="url(#clip-payroll-icon)">
    <path id="bill" d="M19.55,9.151a2.238,2.238,0,0,0-1.65-.611,2.2,2.2,0,0,0-1.2.439L12.04,12.469l-.005,0a3.169,3.169,0,0,1-3.835,0l-.005,0L3.534,8.977a2.2,2.2,0,0,0-1.2-.437,2.239,2.239,0,0,0-1.65.611A2.185,2.185,0,0,0,0,10.752v4.74a4.748,4.748,0,0,0,4.742,4.742H15.492a4.748,4.748,0,0,0,4.742-4.742v-4.74a2.185,2.185,0,0,0-.683-1.6Zm-.9,6.341a3.165,3.165,0,0,1-3.162,3.162H4.742a3.165,3.165,0,0,1-3.162-3.162v-4.74a.609.609,0,0,1,.191-.454.662.662,0,0,1,.448-.18h.031a.615.615,0,0,1,.338.125l4.655,3.489a4.754,4.754,0,0,0,5.747,0l4.653-3.487a.617.617,0,0,1,.34-.127.66.66,0,0,1,.479.18.609.609,0,0,1,.191.454v4.74ZM1.976,6.2V4.742A4.748,4.748,0,0,1,6.718,0h6.876a4.748,4.748,0,0,1,4.742,4.742V6.2a.79.79,0,0,1-1.581,0V4.742a3.165,3.165,0,0,0-3.162-3.162H6.718A3.165,3.165,0,0,0,3.557,4.742V6.2a.79.79,0,0,1-1.581,0Zm7.41,4.189v-.1a6.161,6.161,0,0,1-1.043-.309.79.79,0,1,1,.584-1.469,4.2,4.2,0,0,0,1.348.3.4.4,0,0,0,.4-.4c0-.222-.234-.4-.534-.4A2.081,2.081,0,0,1,7.884,6.046a1.979,1.979,0,0,1,1.5-1.918V4.071a.79.79,0,1,1,1.581,0v.145a6.342,6.342,0,0,1,.682.224.79.79,0,0,1-.573,1.473A3.115,3.115,0,0,0,9.86,5.651a.4.4,0,0,0-.4.4c0,.225.289.4.672.4a2.027,2.027,0,0,1,2.114,1.976,1.979,1.979,0,0,1-1.284,1.851v.125a.79.79,0,0,1-1.581,0Z" transform="translate(1 1)"/>
  </g>
</svg>
