<svg xmlns="http://www.w3.org/2000/svg" xmlns:xlink="http://www.w3.org/1999/xlink" width="442" height="442" viewBox="0 0 442 442"><defs><clipPath id="a"><path d="M116.023,116.023h422v422h-422Zm0,0" transform="translate(-116.023 -116.023)"/></clipPath><clipPath id="c"><rect width="442" height="442"/></clipPath></defs><g id="b" clip-path="url(#c)"><g transform="translate(-106.023 -106.023)"><g transform="translate(116.023 116.023)" clip-path="url(#a)"><path d="M327.023,116.023c-116.34,0-211,94.66-211,211s94.66,211,211,211,211-94.659,211-211S443.364,116.023,327.023,116.023Zm0,32.463A178.538,178.538,0,1,1,148.486,327.023,178.292,178.292,0,0,1,327.023,148.486Zm16.232,64.923V408.178h64.923c37.125,0,64.923-34.147,64.923-73.04S445.3,262.1,408.178,262.1v32.463c16.661,0,32.46,16.72,32.46,40.575s-15.8,40.577-32.46,40.577H375.715V213.409Zm-97.386,32.46c-37.125,0-64.923,34.146-64.923,73.04s27.8,73.037,64.923,73.037v-32.46c-16.661,0-32.46-16.721-32.46-40.577s15.8-40.577,32.46-40.577h32.463V440.638h32.46V245.869Zm0,0" transform="translate(-116.023 -116.023)"/></g></g></g></svg>