<svg width="355" height="356" viewBox="0 0 355 356" fill="none" xmlns="http://www.w3.org/2000/svg">
<path fill-rule="evenodd" clip-rule="evenodd" d="M177.5 326.333C259.192 326.333 325.417 259.922 325.417 178C325.417 96.0779 259.192 29.6667 177.5 29.6667C95.8078 29.6667 29.5833 96.0779 29.5833 178C29.5833 259.922 95.8078 326.333 177.5 326.333ZM245.424 140.331C249.185 135.481 248.314 128.491 243.478 124.719C238.641 120.947 231.671 121.821 227.91 126.671L168.64 203.09C167.322 204.789 164.842 205.01 163.247 203.569L125.755 169.731C121.201 165.621 114.186 165.991 110.087 170.558C105.989 175.125 106.358 182.16 110.912 186.27L148.404 220.108C159.574 230.189 176.928 228.645 186.153 216.75L245.424 140.331Z" fill="#00B21C"/>
</svg>
