<svg width="19" height="18" viewBox="0 0 19 18" fill="none" xmlns="http://www.w3.org/2000/svg">
<g clip-path="url(#clip0_59_423)">
<path d="M8.68719 3.75167H5.54355C4.28597 3.75167 3.65718 3.75167 3.17685 3.98328C2.75434 4.18701 2.41083 4.51209 2.19555 4.91194C1.95081 5.3665 1.95081 5.96156 1.95081 7.15167V13.1017C1.95081 14.2918 1.95081 14.8868 2.19555 15.3414C2.41083 15.7412 2.75434 16.0663 3.17685 16.2701C3.65718 16.5017 4.28597 16.5017 5.54355 16.5017H11.8308C13.0884 16.5017 13.7172 16.5017 14.1975 16.2701C14.6201 16.0663 14.9636 15.7412 15.1788 15.3414C15.4236 14.8868 15.4236 14.2918 15.4236 13.1017V10.1267M6.44171 12.2517H7.69509C8.06123 12.2517 8.24431 12.2517 8.41659 12.2125C8.56933 12.1778 8.71536 12.1206 8.84929 12.0429C9.00036 11.9553 9.12982 11.8328 9.38872 11.5878L16.5463 4.81417C17.1664 4.22737 17.1664 3.27597 16.5463 2.68917C15.9262 2.10237 14.9209 2.10236 14.3009 2.68917L7.14324 9.46278C6.88433 9.70779 6.75488 9.8303 6.66231 9.97327C6.58023 10.1 6.51974 10.2382 6.48307 10.3828C6.44171 10.5458 6.44171 10.7191 6.44171 11.0656V12.2517Z" stroke="#5C5C5C" stroke-width="1.2" stroke-linecap="round" stroke-linejoin="round"/>
</g>
<defs>
<clipPath id="clip0_59_423">
<rect width="17.9637" height="17" fill="white" transform="translate(0.453857 0.918335)"/>
</clipPath>
</defs>
</svg>
