<svg width="30" height="27" viewBox="0 0 30 27" fill="none" xmlns="http://www.w3.org/2000/svg">
<path d="M30 16.5789V3.94737C30 2.75015 29.4528 1.68876 28.6083 0.964239C28.5573 0.911281 28.5053 0.864111 28.4434 0.828119C27.7778 0.316484 26.9551 0 26.0526 0H3.94737C3.04494 0 2.22232 0.316437 1.55664 0.828024C1.49472 0.864063 1.44258 0.911337 1.39155 0.964342C0.547145 1.68886 0 2.75019 0 3.94737V16.5789C0 16.7378 0.0285237 16.8889 0.0468869 17.0429C0.0494369 17.0984 0.0490106 17.1525 0.0635132 17.207C0.366932 19.0842 1.98597 20.5263 3.94737 20.5263H26.0526C28.014 20.5263 29.6331 19.0842 29.9365 17.207C29.951 17.1525 29.9506 17.0984 29.9531 17.0429C29.9715 16.8889 30 16.7378 30 16.5789ZM26.0526 1.57895C26.1567 1.57895 26.2559 1.59658 26.3564 1.60964L15 8.54851L3.6436 1.60964C3.74412 1.59658 3.84334 1.57895 3.94737 1.57895H26.0526ZM26.0526 18.9474H3.94737C2.908 18.9474 2.03276 18.2701 1.71469 17.3371L10.7142 10.9131C11.0688 10.6602 11.1513 10.1668 10.8981 9.81215C10.6448 9.4575 10.1529 9.37423 9.79672 9.62866L1.57895 15.4947V3.94737C1.57895 3.40263 1.77121 2.90646 2.08148 2.50589L14.5883 10.1475C14.7147 10.2246 14.8574 10.2632 15 10.2632C15.1426 10.2632 15.2853 10.2246 15.4117 10.1475L27.9185 2.5059C28.2288 2.90646 28.4211 3.40263 28.4211 3.94737V15.4947L20.2033 9.62865C19.8479 9.37423 19.3548 9.45673 19.1019 9.81214C18.8487 10.1668 18.9312 10.6602 19.2858 10.9131L28.2853 17.3371C27.9672 18.2701 27.092 18.9474 26.0526 18.9474Z" fill="black"/>
<path d="M20.2949 22.3368C19.9865 22.0284 19.4869 22.0284 19.1786 22.3368C18.8702 22.6452 18.8702 23.1448 19.1786 23.4532L20.1993 24.4739L19.1786 25.4947C18.8702 25.8031 18.8702 26.3027 19.1786 26.6111C19.3327 26.7653 19.5347 26.8424 19.7367 26.8424C19.9387 26.8424 20.1407 26.7653 20.2949 26.6111L21.8739 25.0321C22.1822 24.7237 22.1822 24.2241 21.8739 23.9158L20.2949 22.3368Z" fill="black"/>
<path d="M9.80036 24.4739L10.8211 23.4532C11.1295 23.1448 11.1295 22.6452 10.8211 22.3368C10.5127 22.0284 10.0132 22.0284 9.70477 22.3368L8.12582 23.9158C7.81744 24.2241 7.81744 24.7237 8.12582 25.0321L9.70477 26.6111C9.85896 26.7653 10.061 26.8424 10.2629 26.8424C10.4649 26.8424 10.6669 26.7653 10.8211 26.6111C11.1295 26.3027 11.1295 25.8031 10.8211 25.4947L9.80036 24.4739Z" fill="black"/>
<path d="M18.1581 25.2636C18.5941 25.2636 18.9476 24.9101 18.9476 24.4741C18.9476 24.0381 18.5941 23.6846 18.1581 23.6846C17.7221 23.6846 17.3687 24.0381 17.3687 24.4741C17.3687 24.9101 17.7221 25.2636 18.1581 25.2636Z" fill="black"/>
<path d="M11.8422 25.2636C12.2782 25.2636 12.6317 24.9101 12.6317 24.4741C12.6317 24.0381 12.2782 23.6846 11.8422 23.6846C11.4062 23.6846 11.0527 24.0381 11.0527 24.4741C11.0527 24.9101 11.4062 25.2636 11.8422 25.2636Z" fill="black"/>
<path d="M14.9998 26.0524C15.8719 26.0524 16.5788 25.3455 16.5788 24.4734C16.5788 23.6014 15.8719 22.8945 14.9998 22.8945C14.1278 22.8945 13.4209 23.6014 13.4209 24.4734C13.4209 25.3455 14.1278 26.0524 14.9998 26.0524Z" fill="black"/>
</svg>
