<svg width="356" height="356" viewBox="0 0 356 356" fill="none" xmlns="http://www.w3.org/2000/svg">
<path opacity="0.4" d="M326.333 178C326.333 259.922 259.922 326.333 178 326.333C96.0779 326.333 29.6667 259.922 29.6667 178C29.6667 96.0779 96.0779 29.6667 178 29.6667C259.922 29.6667 326.333 96.0779 326.333 178Z" fill="#B9B9B9"/>
<path fill-rule="evenodd" clip-rule="evenodd" d="M244.164 124.719C249.014 128.491 249.887 135.481 246.115 140.331L186.678 216.75C177.426 228.645 160.023 230.189 148.822 220.108L111.225 186.27C106.658 182.159 106.287 175.125 110.398 170.558C114.508 165.991 121.542 165.621 126.109 169.731L163.707 203.569C165.307 205.009 167.793 204.789 169.115 203.09L228.552 126.67C232.324 121.821 239.314 120.947 244.164 124.719Z" fill="#B9B9B9"/>
</svg>
