<svg width="89" height="86" viewBox="0 0 89 86" fill="none" xmlns="http://www.w3.org/2000/svg">
<path d="M22.4923 65.8091L1.51231 84.1291V60.8711" fill="#5FC5FE"/>
<path d="M1.5123 85.6291C1.87168 85.6291 2.22324 85.5002 2.50058 85.258L23.4806 66.938C24.1017 66.3989 24.172 65.4497 23.6212 64.8169C23.0821 64.1958 22.1329 64.1255 21.5001 64.6763L3.0001 80.8243V60.8633C3.0001 60.0352 2.32822 59.3633 1.5001 59.3633C0.671979 59.3633 9.91821e-05 60.0352 9.91821e-05 60.8633V84.1253C9.91821e-05 84.7151 0.339935 85.2464 0.879005 85.4964C1.07823 85.5862 1.28917 85.6253 1.5001 85.6253L1.5123 85.6291Z" fill="#5FC5FE"/>
<path d="M6.46125 1.512H81.5633C84.2938 1.512 86.5125 3.7229 86.5125 6.4612V60.8712C86.5125 63.6017 84.3016 65.8204 81.5633 65.8204H6.45425C3.72375 65.8204 1.50505 63.6095 1.50505 60.8712L1.50114 6.4492C1.50114 3.7187 3.71205 1.5 6.45035 1.5L6.46125 1.512ZM69.7933 43.59C75.2933 43.59 79.7542 39.1291 79.7542 33.6291C79.7542 28.1291 75.2933 23.6682 69.7933 23.6682C64.2933 23.6682 59.8323 28.1291 59.8323 33.6291C59.8323 39.1291 64.2933 43.59 69.7933 43.59ZM44.0123 43.59C49.5123 43.59 53.9732 39.1291 53.9732 33.6291C53.9732 28.1291 49.5123 23.6682 44.0123 23.6682C38.5123 23.6682 34.0514 28.1291 34.0514 33.6291C34.0514 39.1291 38.5123 43.59 44.0123 43.59ZM18.2313 43.59C23.7313 43.59 28.1922 39.1291 28.1922 33.6291C28.1922 28.1291 23.7313 23.6682 18.2313 23.6682C12.7313 23.6682 8.27036 28.1291 8.27036 33.6291C8.27036 39.1291 12.7313 43.59 18.2313 43.59Z" fill="#5FC5FE"/>
<path d="M6.46125 67.3084H81.5633C85.1141 67.3084 88.0125 64.4178 88.0125 60.8592V6.4492C88.0125 2.8984 85.1219 0 81.5633 0H6.45425C2.90345 0 0.00505066 2.8906 0.00505066 6.4492V60.8712C0.00505066 64.422 2.89565 67.3204 6.45425 67.3204L6.46125 67.3084ZM81.5633 3.0114C83.4617 3.0114 85.0125 4.5622 85.0125 6.4606V60.8826C85.0125 62.781 83.4617 64.3318 81.5633 64.3318H6.45425C4.55585 64.3318 3.00505 62.781 3.00505 60.8826L3.00114 6.4486C3.00114 4.5502 4.55195 2.9994 6.45035 2.9994H81.5633L81.5633 3.0114ZM18.2313 45.0894C24.5516 45.0894 29.6923 39.9488 29.6923 33.6284C29.6923 27.3081 24.5517 22.1674 18.2313 22.1674C11.9109 22.1674 6.77026 27.308 6.77026 33.6284C6.77026 39.9487 11.9109 45.0894 18.2313 45.0894ZM18.2313 25.1714C22.8915 25.1714 26.6922 28.9605 26.6922 33.6323C26.6922 38.3041 22.9031 42.0932 18.2313 42.0932C13.5595 42.0932 9.77036 38.3041 9.77036 33.6323C9.77036 28.9605 13.5595 25.1714 18.2313 25.1714ZM44.0123 45.0894C50.3326 45.0894 55.4733 39.9488 55.4733 33.6284C55.4733 27.3081 50.3327 22.1674 44.0123 22.1674C37.6919 22.1674 32.5513 27.308 32.5513 33.6284C32.5513 39.9487 37.6919 45.0894 44.0123 45.0894ZM44.0123 25.1714C48.6725 25.1714 52.4732 28.9605 52.4732 33.6323C52.4732 38.3041 48.6841 42.0932 44.0123 42.0932C39.3405 42.0932 35.5514 38.3041 35.5514 33.6323C35.5514 28.9605 39.3405 25.1714 44.0123 25.1714ZM69.7933 45.0894C76.1136 45.0894 81.2543 39.9488 81.2543 33.6284C81.2543 27.3081 76.1137 22.1674 69.7933 22.1674C63.4729 22.1674 58.3323 27.308 58.3323 33.6284C58.3323 39.9487 63.4729 45.0894 69.7933 45.0894ZM69.7933 25.1714C74.4535 25.1714 78.2542 28.9605 78.2542 33.6323C78.2542 38.3041 74.4651 42.0932 69.7933 42.0932C65.1215 42.0932 61.3323 38.3041 61.3323 33.6323C61.3323 28.9605 65.1215 25.1714 69.7933 25.1714Z" fill="#5FC5FE"/>
<path d="M18.461 44.922C24.7813 44.922 29.922 39.7814 29.922 33.461C29.922 27.1407 24.7814 22 18.461 22C12.1406 22 7.00002 27.1406 7.00002 33.461C7.00002 39.7813 12.1406 44.922 18.461 44.922ZM18.461 25.004C23.1212 25.004 26.9219 28.7931 26.9219 33.4649C26.9219 38.1367 23.1328 41.9258 18.461 41.9258C13.7892 41.9258 10.0001 38.1367 10.0001 33.4649C10.0001 28.7931 13.7892 25.004 18.461 25.004ZM44.242 44.922C50.5623 44.922 55.703 39.7814 55.703 33.461C55.703 27.1407 50.5624 22 44.242 22C37.9216 22 32.781 27.1406 32.781 33.461C32.781 39.7813 37.9216 44.922 44.242 44.922ZM44.242 25.004C48.9022 25.004 52.7029 28.7931 52.7029 33.4649C52.7029 38.1367 48.9138 41.9258 44.242 41.9258C39.5702 41.9258 35.7811 38.1367 35.7811 33.4649C35.7811 28.7931 39.5702 25.004 44.242 25.004ZM70.023 44.922C76.3433 44.922 81.484 39.7814 81.484 33.461C81.484 27.1407 76.3434 22 70.023 22C63.7026 22 58.562 27.1406 58.562 33.461C58.562 39.7813 63.7026 44.922 70.023 44.922ZM70.023 25.004C74.6832 25.004 78.4839 28.7931 78.4839 33.4649C78.4839 38.1367 74.6948 41.9258 70.023 41.9258C65.3512 41.9258 61.5621 38.1367 61.5621 33.4649C61.5621 28.7931 65.3512 25.004 70.023 25.004Z" fill="#3AB1F3"/>
</svg>
