<svg width="45" height="45" viewBox="0 0 45 45" fill="none" xmlns="http://www.w3.org/2000/svg">
<rect width="45" height="45" rx="12" fill="#CAE9F3"/>
<path d="M22.5002 18.3333V23.5417L25.6252 25.625M27.5037 12.0833C29.7158 13.0506 31.5938 14.6397 32.9168 16.6296M12.0835 16.6296C13.4065 14.6397 15.2846 13.0506 17.4966 12.0833M31.8752 32.9167L29.5388 29.7917M13.1252 32.9167L15.4613 29.7917M31.8752 23.5417C31.8752 28.7193 27.6778 32.9167 22.5002 32.9167C17.3225 32.9167 13.1252 28.7193 13.1252 23.5417C13.1252 18.364 17.3225 14.1667 22.5002 14.1667C27.6778 14.1667 31.8752 18.364 31.8752 23.5417Z" stroke="#375E8D" stroke-width="2" stroke-linecap="round" stroke-linejoin="round"/>
</svg>
