<svg width="512" height="512" viewBox="0 0 512 512" fill="none" xmlns="http://www.w3.org/2000/svg">
<path d="M454.251 377.749C458.274 381.635 463.663 383.786 469.257 383.737C474.85 383.688 480.201 381.445 484.156 377.489C488.111 373.534 490.355 368.183 490.404 362.59C490.452 356.996 488.302 351.607 484.416 347.584L271.083 134.251C267.082 130.251 261.657 128.005 256 128.005C250.343 128.005 244.918 130.251 240.917 134.251L27.584 347.584C23.6979 351.607 21.5477 356.996 21.5963 362.59C21.6449 368.183 23.8885 373.534 27.8438 377.489C31.7992 381.445 37.1499 383.688 42.7434 383.737C48.3369 383.786 53.7258 381.635 57.7493 377.749L256 179.499L454.251 377.749Z" fill="black"/>
</svg>
