<svg width="512" height="512" viewBox="0 0 512 512" fill="none" xmlns="http://www.w3.org/2000/svg">
<path d="M272 32C139.456 32 32 139.456 32 272C32 404.544 139.456 512 272 512C404.544 512 512 404.544 512 272C512 139.456 404.544 32 272 32ZM383.2 183.424L294.016 272.608L372.928 360.576C375.843 363.594 377.455 367.635 377.419 371.83C377.382 376.026 375.7 380.039 372.733 383.005C369.767 385.972 365.754 387.654 361.558 387.691C357.363 387.727 353.322 386.115 350.304 383.2L271.392 295.232L183.424 383.2C180.406 386.115 176.365 387.727 172.17 387.691C167.974 387.654 163.961 385.972 160.995 383.005C158.028 380.039 156.346 376.026 156.309 371.83C156.273 367.635 157.885 363.594 160.8 360.576L249.984 271.392L171.072 183.424C168.157 180.406 166.545 176.365 166.581 172.17C166.618 167.974 168.3 163.961 171.267 160.995C174.233 158.028 178.246 156.346 182.442 156.309C186.637 156.273 190.678 157.885 193.696 160.8L272.608 248.768L360.576 160.8C363.594 157.885 367.635 156.273 371.83 156.309C376.026 156.346 380.039 158.028 383.005 160.995C385.972 163.961 387.654 167.974 387.691 172.17C387.727 176.365 386.115 180.406 383.2 183.424Z" fill="black"/>
</svg>
